<svg width="48" height="48" viewBox="0 0 48 48" fill="none" xmlns="http://www.w3.org/2000/svg">
<rect width="48" height="48" rx="16" fill="#4A4A4A"/>
<path d="M15.8672 36.5V31.125C14.6797 30.0417 13.7578 28.776 13.1016 27.3281C12.4453 25.8802 12.1172 24.3542 12.1172 22.75C12.1172 19.625 13.2109 16.9688 15.3984 14.7812C17.5859 12.5938 20.2422 11.5 23.3672 11.5C25.9714 11.5 28.2786 12.2656 30.2891 13.7969C32.2995 15.3281 33.6068 17.3229 34.2109 19.7812L35.8359 26.1875C35.9401 26.5833 35.8672 26.9427 35.6172 27.2656C35.3672 27.5885 35.0339 27.75 34.6172 27.75H32.1172V31.5C32.1172 32.1875 31.8724 32.776 31.3828 33.2656C30.8932 33.7552 30.3047 34 29.6172 34H27.1172V36.5H24.6172V31.5H29.6172V25.25H32.9922L31.8047 20.4062C31.3255 18.5104 30.3047 16.9688 28.7422 15.7812C27.1797 14.5938 25.388 14 23.3672 14C20.9505 14 18.888 14.8438 17.1797 16.5312C15.4714 18.2188 14.6172 20.2708 14.6172 22.6875C14.6172 23.9375 14.8724 25.125 15.3828 26.25C15.8932 27.375 16.6172 28.375 17.5547 29.25L18.3672 30V36.5H15.8672ZM22.1172 27.75H24.6172L24.8047 26.1875C24.9714 26.125 25.1224 26.0521 25.2578 25.9688C25.3932 25.8854 25.513 25.7917 25.6172 25.6875L27.0547 26.3125L28.3047 24.1875L27.0547 23.25C27.0964 23.0833 27.1172 22.9167 27.1172 22.75C27.1172 22.5833 27.0964 22.4167 27.0547 22.25L28.3047 21.3125L27.0547 19.1875L25.6172 19.8125C25.513 19.7083 25.3932 19.6146 25.2578 19.5312C25.1224 19.4479 24.9714 19.375 24.8047 19.3125L24.6172 17.75H22.1172L21.9297 19.3125C21.763 19.375 21.612 19.4479 21.4766 19.5312C21.3411 19.6146 21.2214 19.7083 21.1172 19.8125L19.6797 19.1875L18.4297 21.3125L19.6797 22.25C19.638 22.4167 19.6172 22.5833 19.6172 22.75C19.6172 22.9167 19.638 23.0833 19.6797 23.25L18.4297 24.1875L19.6797 26.3125L21.1172 25.6875C21.2214 25.7917 21.3411 25.8854 21.4766 25.9688C21.612 26.0521 21.763 26.125 21.9297 26.1875L22.1172 27.75ZM23.3672 24.625C22.8464 24.625 22.4036 24.4427 22.0391 24.0781C21.6745 23.7135 21.4922 23.2708 21.4922 22.75C21.4922 22.2292 21.6745 21.7865 22.0391 21.4219C22.4036 21.0573 22.8464 20.875 23.3672 20.875C23.888 20.875 24.3307 21.0573 24.6953 21.4219C25.0599 21.7865 25.2422 22.2292 25.2422 22.75C25.2422 23.2708 25.0599 23.7135 24.6953 24.0781C24.3307 24.4427 23.888 24.625 23.3672 24.625Z" fill="white"/>
</svg>
