<svg width="32" height="32" viewBox="0 0 32 32" fill="none" xmlns="http://www.w3.org/2000/svg">
<rect width="32" height="32" rx="16" fill="#A49A87" fill-opacity="0.2"/>
<path d="M21.8335 13.5002L20.7918 11.2085L18.5002 10.1668L20.7918 9.12516L21.8335 6.8335L22.8752 9.12516L25.1668 10.1668L22.8752 11.2085L21.8335 13.5002ZM21.8335 25.1668L20.7918 22.8752L18.5002 21.8335L20.7918 20.7918L21.8335 18.5002L22.8752 20.7918L25.1668 21.8335L22.8752 22.8752L21.8335 25.1668ZM13.5002 22.6668L11.4168 18.0835L6.8335 16.0002L11.4168 13.9168L13.5002 9.3335L15.5835 13.9168L20.1668 16.0002L15.5835 18.0835L13.5002 22.6668ZM13.5002 18.6252L14.3335 16.8335L16.1252 16.0002L14.3335 15.1668L13.5002 13.3752L12.6668 15.1668L10.8752 16.0002L12.6668 16.8335L13.5002 18.6252Z" fill="#4A4A4A"/>
</svg>
