<svg width="185" height="55" viewBox="0 0 185 55" fill="none" xmlns="http://www.w3.org/2000/svg">
<path d="M183.7 48.3553C183.7 51.2534 181.36 53.6165 178.439 53.6165H6.46001C3.56211 53.6165 1.19922 51.2757 1.19922 48.3553V6.48782C1.19922 3.58966 3.56211 1.22653 6.46001 1.22653H178.439C181.337 1.22653 183.7 3.58966 183.7 6.48782V48.3553Z" fill="white"/>
<path d="M178.466 54.82H6.48683C2.92019 54.82 0 51.9218 0 48.3549V6.48744C0 2.92047 2.8979 0 6.48683 0H178.466C182.032 0 184.953 2.89817 184.953 6.48744V48.3549C184.93 51.9218 182.032 54.82 178.466 54.82Z" fill="#A6A6A6"/>
<path d="M183.7 48.3553C183.7 51.2534 181.36 53.6165 178.439 53.6165H6.46001C3.56211 53.6165 1.19922 51.2757 1.19922 48.3553V6.48782C1.19922 3.58966 3.56211 1.22653 6.46001 1.22653H178.439C181.337 1.22653 183.7 3.58966 183.7 6.48782V48.3553Z" fill="black"/>
<path d="M41.2875 27.1317C41.243 22.7175 44.8987 20.5551 45.0771 20.4659C43.004 17.4563 39.794 17.0327 38.6571 17.0104C35.9599 16.7205 33.3518 18.6155 31.9697 18.6155C30.5653 18.6155 28.4476 17.0327 26.1739 17.0772C23.2314 17.1219 20.4896 18.8162 18.996 21.4691C15.8975 26.8418 18.2159 34.7561 21.1806 39.1033C22.6742 41.2435 24.4129 43.6067 26.6866 43.5175C28.9157 43.4283 29.7405 42.0907 32.4378 42.0907C35.0905 42.0907 35.893 43.5175 38.2113 43.4506C40.5965 43.406 42.1123 41.3104 43.5389 39.1703C45.2554 36.7402 45.9465 34.3325 45.9687 34.1988C45.9242 34.1765 41.3321 32.4153 41.2875 27.1317Z" fill="white"/>
<path d="M36.8966 14.1341C38.1003 12.6404 38.9251 10.5894 38.6799 8.53839C36.9412 8.60527 34.7789 9.74225 33.5306 11.2136C32.416 12.5066 31.4352 14.6245 31.7027 16.6087C33.6643 16.7424 35.6482 15.6055 36.8966 14.1341Z" fill="white"/>
<path d="M73.5596 43.1831H70.4387L68.7446 37.8327H62.7928L61.1654 43.1831H58.1338L63.9964 24.9469H67.63L73.5596 43.1831ZM68.2095 35.5809L66.6715 30.8101C66.5155 30.3197 66.2033 29.1827 65.7576 27.3769H65.7129C65.5346 28.1572 65.2448 29.2942 64.8435 30.8101L63.3277 35.5809H68.2095Z" fill="white"/>
<path d="M88.6313 36.45C88.6313 38.6793 88.0294 40.4628 86.8034 41.7559C85.7111 42.9151 84.3513 43.4948 82.7463 43.4948C81.0076 43.4948 79.7593 42.8705 79.0014 41.6221V48.5331H76.0812V34.3766C76.0812 32.9722 76.0366 31.5231 75.9697 30.0517H78.5332L78.6892 32.1473H78.7339C79.7147 30.5867 81.1859 29.7842 83.1699 29.7842C84.7303 29.7842 86.0232 30.3861 87.0486 31.6345C88.0963 32.8384 88.6313 34.4435 88.6313 36.45ZM85.6443 36.5614C85.6443 35.2907 85.3544 34.2206 84.7748 33.3957C84.1507 32.5263 83.3037 32.1027 82.2336 32.1027C81.5203 32.1027 80.8516 32.3479 80.272 32.8161C79.6924 33.3066 79.2911 33.9308 79.1128 34.6888C79.0237 35.0454 78.9791 35.3353 78.9791 35.5805V37.7653C78.9791 38.724 79.2689 39.5265 79.8485 40.1953C80.428 40.8641 81.2082 41.1762 82.1444 41.1762C83.2367 41.1762 84.1061 40.7526 84.708 39.9055C85.3321 39.0584 85.6443 37.9436 85.6443 36.5614Z" fill="white"/>
<path d="M103.748 36.45C103.748 38.6793 103.146 40.4628 101.921 41.7559C100.828 42.9151 99.4687 43.4948 97.8636 43.4948C96.1248 43.4948 94.8765 42.8705 94.1186 41.6221V48.5331H91.1984V34.3766C91.1984 32.9722 91.1539 31.5231 91.0869 30.0517H93.6505L93.8065 32.1473H93.851C94.8319 30.5867 96.3031 29.7842 98.2872 29.7842C99.8475 29.7842 101.141 30.3861 102.165 31.6345C103.236 32.8384 103.748 34.4435 103.748 36.45ZM100.783 36.5614C100.783 35.2907 100.494 34.2206 99.9141 33.3957C99.2905 32.5263 98.4429 32.1027 97.3732 32.1027C96.6598 32.1027 95.9911 32.3479 95.4115 32.8161C94.8319 33.3066 94.4529 33.9308 94.2524 34.6888C94.1632 35.0454 94.1186 35.3353 94.1186 35.5805V37.7653C94.1186 38.724 94.4084 39.5265 94.988 40.1953C95.5675 40.8418 96.3478 41.1762 97.284 41.1762C98.3763 41.1762 99.2455 40.7526 99.8475 39.9055C100.472 39.0584 100.783 37.9436 100.783 36.5614Z" fill="white"/>
<path d="M120.664 38.0776C120.664 39.6381 120.13 40.8865 119.037 41.8675C117.856 42.9376 116.184 43.4727 114.066 43.4727C112.104 43.4727 110.521 43.0936 109.34 42.3356L110.009 39.9056C111.28 40.6636 112.706 41.0426 114.222 41.0426C115.315 41.0426 116.184 40.7973 116.786 40.3069C117.388 39.8165 117.7 39.1477 117.7 38.3228C117.7 37.5871 117.454 36.9629 116.941 36.4501C116.429 35.9374 115.604 35.4692 114.423 35.0456C111.235 33.8641 109.631 32.1029 109.631 29.8289C109.631 28.3353 110.188 27.1091 111.324 26.1505C112.461 25.1918 113.955 24.7237 115.805 24.7237C117.454 24.7237 118.859 25.0135 119.951 25.5931L119.215 27.9786C118.19 27.4212 117.009 27.1314 115.716 27.1314C114.69 27.1314 113.865 27.3766 113.308 27.8894C112.818 28.3353 112.573 28.8926 112.573 29.5391C112.573 30.2525 112.863 30.8545 113.42 31.3226C113.91 31.7462 114.779 32.2143 116.072 32.7271C117.633 33.3513 118.791 34.087 119.528 34.9341C120.308 35.759 120.664 36.8068 120.664 38.0776Z" fill="white"/>
<path d="M130.352 32.2367H127.12V38.6127C127.12 40.2401 127.676 41.0427 128.814 41.0427C129.326 41.0427 129.772 40.9981 130.107 40.9089L130.196 43.1383C129.616 43.3612 128.858 43.4727 127.922 43.4727C126.762 43.4727 125.872 43.1159 125.225 42.4249C124.578 41.7115 124.244 40.5299 124.244 38.8802V32.2367H122.327V30.0519H124.244V27.6442L127.12 26.7748V30.0519H130.352C130.352 30.0296 130.352 32.2367 130.352 32.2367Z" fill="white"/>
<path d="M144.868 36.5169C144.868 38.5456 144.288 40.1953 143.129 41.4883C141.925 42.826 140.321 43.4948 138.314 43.4948C136.375 43.4948 134.837 42.8483 133.7 41.5775C132.563 40.3068 131.983 38.6793 131.983 36.7398C131.983 34.711 132.585 33.039 133.767 31.7237C134.948 30.4307 136.554 29.7842 138.538 29.7842C140.477 29.7842 142.015 30.4307 143.196 31.7014C144.288 32.9276 144.868 34.5327 144.868 36.5169ZM141.836 36.5837C141.836 35.3798 141.569 34.3544 141.056 33.4849C140.454 32.4371 139.563 31.9243 138.426 31.9243C137.245 31.9243 136.353 32.4371 135.751 33.4849C135.238 34.3544 134.971 35.4022 134.971 36.6506C134.971 37.8545 135.238 38.9022 135.751 39.7494C136.375 40.7972 137.267 41.31 138.404 41.31C139.518 41.31 140.388 40.7749 141.034 39.7272C141.547 38.8131 141.836 37.7876 141.836 36.5837Z" fill="white"/>
<path d="M154.369 32.6158C154.079 32.5712 153.767 32.5266 153.455 32.5266C152.43 32.5266 151.627 32.9056 151.07 33.6859C150.58 34.3769 150.334 35.2464 150.334 36.2943V43.2053H147.414V34.1987C147.414 32.6827 147.392 31.3005 147.325 30.052H149.866L149.978 32.5712H150.067C150.379 31.7017 150.87 31.0107 151.538 30.4756C152.184 30.0074 152.898 29.7622 153.655 29.7622C153.924 29.7622 154.168 29.7845 154.391 29.8068L154.369 32.6158Z" fill="white"/>
<path d="M167.431 35.9821C167.431 36.4949 167.386 36.9408 167.32 37.2974H158.559C158.582 38.5904 159.027 39.5937 159.83 40.2848C160.566 40.8867 161.524 41.1988 162.706 41.1988C163.999 41.1988 165.18 40.9981 166.25 40.5745L166.718 42.6033C165.47 43.1384 163.999 43.4059 162.304 43.4059C160.276 43.4059 158.671 42.8039 157.489 41.6001C156.33 40.3962 155.751 38.7911 155.751 36.7624C155.751 34.7782 156.285 33.1285 157.378 31.8132C158.514 30.4087 160.053 29.6953 161.97 29.6953C163.865 29.6953 165.292 30.4087 166.272 31.8132C167.053 32.9725 167.431 34.3546 167.431 35.9821ZM164.645 35.2241C164.667 34.3546 164.467 33.619 164.088 32.9725C163.575 32.1476 162.795 31.7463 161.769 31.7463C160.811 31.7463 160.03 32.1476 159.451 32.9278C158.961 33.5521 158.671 34.3101 158.582 35.2018L164.645 35.2241Z" fill="white"/>
<path d="M66.8054 18.4148H65.2674L64.4203 15.7842H61.5001L60.6976 18.4148H59.2041L62.0797 9.45279H63.863L66.8054 18.4148ZM64.1973 14.6918L63.4394 12.351C63.3503 12.1057 63.2165 11.5484 62.9937 10.6566H62.9713C62.8822 11.0357 62.7485 11.593 62.5478 12.351L61.8122 14.6918H64.1973Z" fill="white"/>
<path d="M74.0318 11.9493L71.5798 18.4145H70.1754L67.8125 11.9493H69.3506L70.4652 15.3603C70.6436 15.9399 70.7996 16.475 70.9333 16.9877H70.978C71.0894 16.5195 71.2455 15.9844 71.446 15.3603L72.5383 11.9493C72.5161 11.9493 74.0318 11.9493 74.0318 11.9493Z" fill="white"/>
<path d="M79.2447 18.4142L79.1333 17.6786H79.0887C78.6429 18.2805 78.0187 18.5704 77.194 18.5704C76.0348 18.5704 75.21 17.7678 75.21 16.6754C75.21 15.0702 76.5921 14.2454 78.9773 14.2454V14.1339C78.9773 13.2867 78.5314 12.8631 77.6397 12.8631C76.9933 12.8631 76.4361 13.0193 75.9457 13.3537L75.6558 12.4173C76.2577 12.0383 76.9933 11.8599 77.885 11.8599C79.5791 11.8599 80.4262 12.7517 80.4262 14.5352V16.9206C80.4262 17.5671 80.4485 18.0798 80.5153 18.4589L79.2447 18.4142ZM79.0442 15.204C77.4392 15.204 76.6589 15.583 76.6589 16.497C76.6589 17.1658 77.0825 17.5002 77.6397 17.5002C78.3754 17.5002 79.0442 16.9429 79.0442 16.1849C79.0442 16.2072 79.0442 15.204 79.0442 15.204Z" fill="white"/>
<path d="M83.6361 10.8792C83.168 10.8792 82.7891 10.5003 82.7891 10.0098C82.7891 9.51933 83.168 9.16263 83.6584 9.16263C84.1488 9.16263 84.5501 9.51933 84.5278 10.0098C84.5501 10.5448 84.1711 10.8792 83.6361 10.8792ZM84.3717 18.4145H82.9451V11.9493H84.3717V18.4145Z" fill="white"/>
<path d="M88.3593 18.4145H86.9326V8.98434H88.3593V18.4145Z" fill="white"/>
<path d="M94.4684 18.4142L94.3569 17.6786H94.3123C93.8665 18.2805 93.2423 18.5704 92.4175 18.5704C91.2584 18.5704 90.4336 17.7678 90.4336 16.6754C90.4336 15.0702 91.8156 14.2454 94.2008 14.2454V14.1339C94.2008 13.2867 93.755 12.8631 92.8634 12.8631C92.2169 12.8631 91.6596 13.0193 91.1692 13.3537L90.8795 12.4173C91.4812 12.0383 92.2169 11.8599 93.1086 11.8599C94.8027 11.8599 95.6498 12.7517 95.6498 14.5352V16.9206C95.6498 17.5671 95.6721 18.0798 95.739 18.4589H94.4684V18.4142ZM94.2677 15.204C92.6627 15.204 91.8826 15.583 91.8826 16.497C91.8826 17.1658 92.3061 17.5002 92.8634 17.5002C93.599 17.5002 94.2677 16.9429 94.2677 16.1849V15.204Z" fill="white"/>
<path d="M101.486 18.5708C100.572 18.5708 99.881 18.1918 99.4582 17.4338H99.4357L99.3466 18.437H98.1201C98.1651 17.9243 98.1651 17.3223 98.1651 16.6981V9.00681H99.6138V12.9081H99.6363C100.059 12.1948 100.75 11.8381 101.687 11.8381C103.247 11.8381 104.34 13.1757 104.34 15.1152C104.34 17.0994 103.136 18.5708 101.486 18.5708ZM101.197 12.9528C100.371 12.9528 99.6138 13.6661 99.6138 14.6693V15.8064C99.6138 16.6981 100.282 17.4338 101.174 17.4338C102.244 17.4338 102.891 16.5643 102.891 15.1599C102.891 13.8445 102.222 12.9528 101.197 12.9528Z" fill="white"/>
<path d="M107.909 18.4145H106.481V8.98434H107.909V18.4145Z" fill="white"/>
<path d="M115.743 15.5385H111.44C111.462 16.7646 112.287 17.4558 113.469 17.4558C114.115 17.4558 114.694 17.3443 115.207 17.1437L115.43 18.1469C114.828 18.4144 114.093 18.5481 113.268 18.5481C111.239 18.5481 110.059 17.2774 110.059 15.2933C110.059 13.3091 111.284 11.8155 113.112 11.8155C114.762 11.8155 115.809 13.0417 115.809 14.892C115.787 15.1373 115.787 15.3602 115.743 15.5385ZM114.427 14.513C114.427 13.5098 113.914 12.8187 113.001 12.8187C112.176 12.8187 111.53 13.5321 111.44 14.513H114.427Z" fill="white"/>
<path d="M124.453 18.5707C122.558 18.5707 121.331 17.1661 121.331 15.2489C121.331 13.2425 122.58 11.838 124.564 11.838C126.414 11.838 127.685 13.1756 127.685 15.1597C127.662 17.1661 126.369 18.5707 124.453 18.5707ZM124.497 12.8635C123.449 12.8635 122.803 13.8444 122.803 15.182C122.803 16.5196 123.472 17.4783 124.497 17.4783C125.522 17.4783 126.191 16.4304 126.191 15.1597C126.168 13.8667 125.5 12.8635 124.497 12.8635Z" fill="white"/>
<path d="M135.375 18.4144H133.949V14.6914C133.949 13.5544 133.503 12.9747 132.656 12.9747C131.809 12.9747 131.207 13.7105 131.207 14.5576V18.4144H129.78V13.7996C129.78 13.22 129.758 12.6181 129.735 11.9493H131.006L131.073 12.9525H131.117C131.497 12.2614 132.299 11.8155 133.169 11.8155C134.529 11.8155 135.42 12.8633 135.42 14.5353L135.375 18.4144Z" fill="white"/>
<path d="M144.782 13.0418H143.199V16.1851C143.199 16.9877 143.467 17.389 144.046 17.389C144.291 17.389 144.514 17.3667 144.692 17.3221L144.737 18.4145C144.448 18.526 144.09 18.5706 143.623 18.5706C142.486 18.5706 141.817 17.9464 141.817 16.3189V13.0641H140.881V11.9494H141.817V10.7678L143.221 10.3442V11.9494H144.804V13.0418H144.782Z" fill="white"/>
<path d="M152.386 18.4145H150.937V14.7361C150.937 13.5769 150.492 12.9972 149.644 12.9972C148.909 12.9972 148.218 13.51 148.218 14.5354V18.4145H146.77V8.98434H148.218V12.8634H148.241C148.686 12.1501 149.355 11.8157 150.18 11.8157C151.539 11.8157 152.386 12.8857 152.386 14.5801V18.4145Z" fill="white"/>
<path d="M159.745 15.5385H155.419C155.442 16.7646 156.267 17.4558 157.448 17.4558C158.094 17.4558 158.674 17.3443 159.187 17.1437L159.41 18.1469C158.808 18.4144 158.073 18.5481 157.248 18.5481C155.22 18.5481 154.038 17.2774 154.038 15.2933C154.038 13.3091 155.264 11.8155 157.091 11.8155C158.741 11.8155 159.789 13.0417 159.789 14.892C159.789 15.1373 159.766 15.3602 159.745 15.5385ZM158.429 14.513C158.429 13.5098 157.916 12.8187 157.002 12.8187C156.178 12.8187 155.531 13.5321 155.442 14.513H158.429Z" fill="white"/>
</svg>
