<svg width="144" height="40" viewBox="0 0 144 40" fill="none" xmlns="http://www.w3.org/2000/svg">
<rect x="0.5" y="0.5" width="143" height="39" rx="9.5" fill="white"/>
<rect x="0.5" y="0.5" width="143" height="39" rx="9.5" stroke="#A6A6A6"/>
<path d="M35.9188 20.7937C35.9062 18.5 36.9438 16.7687 39.0438 15.4937C37.8688 13.8125 36.0938 12.8875 33.75 12.7063C31.5312 12.5312 29.1062 14 28.2188 14C27.2812 14 25.1313 12.7688 23.4437 12.7688C19.9562 12.825 16.25 15.55 16.25 21.0938C16.25 22.7313 16.55 24.4229 17.15 26.1688C17.95 28.4625 20.8375 34.0875 23.85 33.9937C25.425 33.9562 26.5375 32.875 28.5875 32.875C30.575 32.875 31.6062 33.9937 33.3625 33.9937C36.4 33.95 39.0125 28.8375 39.775 26.5375C35.7 24.6187 35.9188 20.9125 35.9188 20.7937ZM32.3813 10.5312C34.0875 8.50625 33.9312 6.6625 33.8813 6C32.375 6.0875 30.6312 7.025 29.6375 8.18125C28.5437 9.41875 27.9 10.95 28.0375 12.675C29.6688 12.8 31.1562 11.9625 32.3813 10.5312Z" fill="#0F172A"/>
<g opacity="0.6">
<path d="M54.648 8.72C56.304 8.72 57.272 9.664 57.272 11.36C57.272 13.056 56.304 14 54.648 14H52.784V8.72H54.648ZM54.648 13.272C55.76 13.272 56.376 12.576 56.376 11.36C56.376 10.144 55.76 9.448 54.648 9.448H53.64V13.272H54.648ZM60.7338 8.64C62.2698 8.64 63.2298 9.68 63.2298 11.36C63.2298 13.04 62.2698 14.08 60.7338 14.08C59.2058 14.08 58.2458 13.04 58.2458 11.36C58.2458 9.68 59.2058 8.64 60.7338 8.64ZM60.7338 9.384C59.7418 9.384 59.1418 10.104 59.1418 11.36C59.1418 12.616 59.7418 13.336 60.7338 13.336C61.7338 13.336 62.3338 12.616 62.3338 11.36C62.3338 10.104 61.7338 9.384 60.7338 9.384ZM67.2646 10.832L66.4326 14H65.4166L63.8646 8.72H64.7926L65.9446 13.32L67.1046 8.72H67.9846L69.1526 13.328L70.3126 8.72H71.1926L69.6486 14H68.6406L67.8006 10.832L67.5366 9.616H67.5286L67.2646 10.832ZM76.5261 8.72V14H75.5101L73.4701 10.672L72.9581 9.696H72.9501L72.9821 10.592V14H72.1981V8.72H73.2061L75.2381 12.04L75.7581 13.024H75.7661L75.7341 12.128V8.72H76.5261ZM78.9447 13.264H81.8567V14H78.0887V8.72H78.9447V13.264ZM84.8901 8.64C86.4261 8.64 87.3861 9.68 87.3861 11.36C87.3861 13.04 86.4261 14.08 84.8901 14.08C83.3621 14.08 82.4021 13.04 82.4021 11.36C82.4021 9.68 83.3621 8.64 84.8901 8.64ZM84.8901 9.384C83.8981 9.384 83.2981 10.104 83.2981 11.36C83.2981 12.616 83.8981 13.336 84.8901 13.336C85.8901 13.336 86.4901 12.616 86.4901 11.36C86.4901 10.104 85.8901 9.384 84.8901 9.384ZM91.9515 14L91.4555 12.616H89.2315L88.7275 14H87.8475L89.8395 8.72H90.8635L92.8555 14H91.9515ZM89.4795 11.92H91.1995L90.5915 10.224L90.3515 9.464H90.3275L90.1035 10.208L89.4795 11.92ZM95.6558 8.72C97.3118 8.72 98.2798 9.664 98.2798 11.36C98.2798 13.056 97.3118 14 95.6558 14H93.7918V8.72H95.6558ZM95.6558 13.272C96.7678 13.272 97.3838 12.576 97.3838 11.36C97.3838 10.144 96.7678 9.448 95.6558 9.448H94.6478V13.272H95.6558ZM104.343 8.64C105.879 8.64 106.839 9.68 106.839 11.36C106.839 13.04 105.879 14.08 104.343 14.08C102.815 14.08 101.855 13.04 101.855 11.36C101.855 9.68 102.815 8.64 104.343 8.64ZM104.343 9.384C103.351 9.384 102.751 10.104 102.751 11.36C102.751 12.616 103.351 13.336 104.343 13.336C105.343 13.336 105.943 12.616 105.943 11.36C105.943 10.104 105.343 9.384 104.343 9.384ZM112.44 8.72V14H111.424L109.384 10.672L108.872 9.696H108.864L108.896 10.592V14H108.112V8.72H109.12L111.152 12.04L111.672 13.024H111.68L111.648 12.128V8.72H112.44ZM120.337 8.72V9.456H118.529V14H117.673V9.456H115.865V8.72H120.337ZM124.826 8.72H125.69V14H124.826V11.696H122.218V14H121.362V8.72H122.218V10.96H124.826V8.72ZM128.109 13.264H131.189V14H127.253V8.72H131.077V9.456H128.109V10.976H130.429V11.696H128.109V13.264Z" fill="#0F172A"/>
</g>
<path d="M59.74 30L58.93 27.585H55.105L54.295 30H52.18L55.795 20.1H58.27L61.885 30H59.74ZM55.63 26.055H58.42L57.475 23.265L57.025 21.765H56.995L56.575 23.235L55.63 26.055ZM67.5535 22.35C69.5485 22.35 70.7635 23.79 70.7635 26.235C70.7635 28.695 69.5335 30.15 67.5535 30.15C66.4435 30.15 65.6335 29.595 65.1985 28.755V33.15H63.1435V22.5H64.9585L65.0335 23.955C65.4535 22.995 66.3535 22.35 67.5535 22.35ZM66.9385 28.575C68.0335 28.575 68.6935 27.78 68.6935 26.25C68.6935 24.72 68.0335 23.925 66.9385 23.925C65.8735 23.925 65.1985 24.72 65.1985 26.175V26.325C65.1985 27.75 65.8585 28.575 66.9385 28.575ZM76.9871 22.35C78.9821 22.35 80.1971 23.79 80.1971 26.235C80.1971 28.695 78.9671 30.15 76.9871 30.15C75.8771 30.15 75.0671 29.595 74.6321 28.755V33.15H72.5771V22.5H74.3921L74.4671 23.955C74.8871 22.995 75.7871 22.35 76.9871 22.35ZM76.3721 28.575C77.4671 28.575 78.1271 27.78 78.1271 26.25C78.1271 24.72 77.4671 23.925 76.3721 23.925C75.3071 23.925 74.6321 24.72 74.6321 26.175V26.325C74.6321 27.75 75.2921 28.575 76.3721 28.575ZM90.4206 19.95C92.2656 19.95 93.5256 20.535 94.5306 21.855L93.1056 23.25C92.5956 22.185 91.7706 21.645 90.4356 21.645C89.1906 21.645 88.5606 22.17 88.5606 22.875C88.5606 23.535 89.1006 23.895 90.8406 24.21C93.5106 24.705 94.5156 25.53 94.5156 27.18C94.5156 29.04 92.8206 30.15 90.4506 30.15C88.2006 30.15 86.9256 29.505 86.0856 28.305L87.3156 26.835C88.0956 28.125 89.0406 28.455 90.3756 28.455C91.6506 28.455 92.3406 28.05 92.3406 27.3C92.3406 26.76 91.8156 26.445 90.1806 26.115C87.4206 25.56 86.3706 24.72 86.3706 23.07C86.3706 21.315 87.8556 19.95 90.4206 19.95ZM101.064 28.17L101.379 29.535C100.899 29.925 100.119 30.15 99.3243 30.15C97.8393 30.15 96.8193 29.535 96.8193 27.885V24.03H95.4543V22.5H96.8193V20.775L98.8743 20.205V22.5H101.304V24.03H98.8743V27.555C98.8743 28.275 99.2643 28.59 99.9093 28.59C100.404 28.59 100.749 28.44 101.064 28.17ZM106.115 22.35C108.53 22.35 109.955 23.805 109.955 26.25C109.955 28.695 108.53 30.15 106.115 30.15C103.7 30.15 102.275 28.695 102.275 26.25C102.275 23.805 103.7 22.35 106.115 22.35ZM106.115 23.88C104.96 23.88 104.33 24.66 104.33 26.25C104.33 27.84 104.96 28.62 106.115 28.62C107.27 28.62 107.9 27.84 107.9 26.25C107.9 24.66 107.27 23.88 106.115 23.88ZM115.963 22.35C116.293 22.35 116.593 22.41 116.773 22.515L116.518 24.315C116.308 24.18 115.963 24.09 115.573 24.09C114.673 24.09 113.773 24.75 113.773 26.115V30H111.718V22.5H113.503L113.638 23.97C114.028 22.935 114.793 22.35 115.963 22.35ZM124.904 26.22C124.904 26.43 124.874 26.835 124.844 27.03H119.534C119.744 28.11 120.404 28.62 121.409 28.62C122.279 28.62 122.849 28.29 123.059 27.69L124.739 28.305C124.259 29.505 123.104 30.15 121.409 30.15C118.919 30.15 117.509 28.71 117.509 26.25C117.509 23.79 118.874 22.35 121.289 22.35C123.629 22.35 124.904 23.76 124.904 26.22ZM121.274 23.865C120.284 23.865 119.684 24.45 119.519 25.59H123.014C122.849 24.465 122.219 23.865 121.274 23.865Z" fill="#0F172A"/>
</svg>
