<svg width="23" height="23" viewBox="0 0 23 23" fill="none" xmlns="http://www.w3.org/2000/svg">
<g clip-path="url(#clip0_136_271)">
<path d="M15.7692 0C15.8222 0 15.8752 0 15.9312 0C16.0612 1.606 15.4482 2.806 14.7032 3.675C13.9722 4.538 12.9712 5.375 11.3522 5.248C11.2442 3.665 11.8582 2.554 12.6022 1.687C13.2922 0.879 14.5572 0.16 15.7692 0Z" fill="black"/>
<path d="M20.67 16.716C20.67 16.732 20.67 16.746 20.67 16.761C20.215 18.139 19.566 19.32 18.774 20.416C18.051 21.411 17.165 22.75 15.583 22.75C14.216 22.75 13.308 21.871 11.907 21.847C10.425 21.823 9.61 22.582 8.255 22.773C8.1 22.773 7.945 22.773 7.793 22.773C6.798 22.629 5.995 21.841 5.41 21.131C3.685 19.033 2.352 16.323 2.104 12.855C2.104 12.515 2.104 12.176 2.104 11.836C2.209 9.35402 3.415 7.33602 5.018 6.35802C5.864 5.83802 7.027 5.39502 8.322 5.59302C8.877 5.67902 9.444 5.86902 9.941 6.05702C10.412 6.23802 11.001 6.55902 11.559 6.54202C11.937 6.53102 12.313 6.33402 12.694 6.19502C13.81 5.79202 14.904 5.33002 16.346 5.54702C18.079 5.80902 19.309 6.57902 20.069 7.76702C18.603 8.70002 17.444 10.106 17.642 12.507C17.818 14.688 19.086 15.964 20.67 16.716Z" fill="black"/>
</g>
<defs>
<clipPath id="clip0_136_271">
<rect width="22.773" height="22.773" fill="white"/>
</clipPath>
</defs>
</svg>
