<svg width="11" height="17" viewBox="0 0 11 17" fill="none" xmlns="http://www.w3.org/2000/svg">
<path d="M10.4167 11.4583C10.4167 12.9028 9.90972 14.1319 8.89583 15.1458C7.88194 16.1597 6.65278 16.6667 5.20833 16.6667C3.76389 16.6667 2.53472 16.1597 1.52083 15.1458C0.506945 14.1319 0 12.9028 0 11.4583V3.75C0 2.70833 0.364583 1.82292 1.09375 1.09375C1.82292 0.364583 2.70833 0 3.75 0C4.79167 0 5.67708 0.364583 6.40625 1.09375C7.13542 1.82292 7.5 2.70833 7.5 3.75V11.0417C7.5 11.6806 7.27778 12.2222 6.83333 12.6667C6.38889 13.1111 5.84722 13.3333 5.20833 13.3333C4.56944 13.3333 4.02778 13.1111 3.58333 12.6667C3.13889 12.2222 2.91667 11.6806 2.91667 11.0417V3.33333H4.58333V11.0417C4.58333 11.2222 4.64236 11.3715 4.76042 11.4896C4.87847 11.6076 5.02778 11.6667 5.20833 11.6667C5.38889 11.6667 5.53819 11.6076 5.65625 11.4896C5.77431 11.3715 5.83333 11.2222 5.83333 11.0417V3.75C5.81944 3.16667 5.61458 2.67361 5.21875 2.27083C4.82292 1.86806 4.33333 1.66667 3.75 1.66667C3.16667 1.66667 2.67361 1.86806 2.27083 2.27083C1.86806 2.67361 1.66667 3.16667 1.66667 3.75V11.4583C1.65278 12.4444 1.99306 13.2812 2.6875 13.9688C3.38194 14.6562 4.22222 15 5.20833 15C6.18056 15 7.00694 14.6562 7.6875 13.9688C8.36806 13.2812 8.72222 12.4444 8.75 11.4583V3.33333H10.4167V11.4583Z" fill="#858585"/>
</svg>
