<svg width="11" height="24" viewBox="0 0 11 24" fill="none" xmlns="http://www.w3.org/2000/svg">
<path d="M10.4167 14.9583C10.4167 16.4028 9.90972 17.6319 8.89583 18.6458C7.88194 19.6597 6.65278 20.1667 5.20833 20.1667C3.76389 20.1667 2.53472 19.6597 1.52083 18.6458C0.506945 17.6319 0 16.4028 0 14.9583V7.25C0 6.20833 0.364583 5.32292 1.09375 4.59375C1.82292 3.86458 2.70833 3.5 3.75 3.5C4.79167 3.5 5.67708 3.86458 6.40625 4.59375C7.13542 5.32292 7.5 6.20833 7.5 7.25V14.5417C7.5 15.1806 7.27778 15.7222 6.83333 16.1667C6.38889 16.6111 5.84722 16.8333 5.20833 16.8333C4.56944 16.8333 4.02778 16.6111 3.58333 16.1667C3.13889 15.7222 2.91667 15.1806 2.91667 14.5417V6.83333H4.58333V14.5417C4.58333 14.7222 4.64236 14.8715 4.76042 14.9896C4.87847 15.1076 5.02778 15.1667 5.20833 15.1667C5.38889 15.1667 5.53819 15.1076 5.65625 14.9896C5.77431 14.8715 5.83333 14.7222 5.83333 14.5417V7.25C5.81944 6.66667 5.61458 6.17361 5.21875 5.77083C4.82292 5.36806 4.33333 5.16667 3.75 5.16667C3.16667 5.16667 2.67361 5.36806 2.27083 5.77083C1.86806 6.17361 1.66667 6.66667 1.66667 7.25V14.9583C1.65278 15.9444 1.99306 16.7812 2.6875 17.4688C3.38194 18.1562 4.22222 18.5 5.20833 18.5C6.18056 18.5 7.00694 18.1562 7.6875 17.4688C8.36806 16.7812 8.72222 15.9444 8.75 14.9583V6.83333H10.4167V14.9583Z" fill="#858585"/>
</svg>
