<svg width="21" height="21" viewBox="0 0 21 21" fill="none" xmlns="http://www.w3.org/2000/svg">
<path d="M7.65 14.79L14.79 10.2L7.65 5.61V14.79ZM10.2 20.4C8.789 20.4 7.463 20.1322 6.222 19.5967C4.981 19.0612 3.9015 18.3345 2.9835 17.4165C2.0655 16.4985 1.33875 15.419 0.80325 14.178C0.26775 12.937 0 11.611 0 10.2C0 8.789 0.26775 7.463 0.80325 6.222C1.33875 4.981 2.0655 3.9015 2.9835 2.9835C3.9015 2.0655 4.981 1.33875 6.222 0.80325C7.463 0.26775 8.789 0 10.2 0C11.611 0 12.937 0.26775 14.178 0.80325C15.419 1.33875 16.4985 2.0655 17.4165 2.9835C18.3345 3.9015 19.0612 4.981 19.5967 6.222C20.1322 7.463 20.4 8.789 20.4 10.2C20.4 11.611 20.1322 12.937 19.5967 14.178C19.0612 15.419 18.3345 16.4985 17.4165 17.4165C16.4985 18.3345 15.419 19.0612 14.178 19.5967C12.937 20.1322 11.611 20.4 10.2 20.4ZM10.2 18.36C12.478 18.36 14.4075 17.5695 15.9885 15.9885C17.5695 14.4075 18.36 12.478 18.36 10.2C18.36 7.922 17.5695 5.9925 15.9885 4.4115C14.4075 2.8305 12.478 2.04 10.2 2.04C7.922 2.04 5.9925 2.8305 4.4115 4.4115C2.8305 5.9925 2.04 7.922 2.04 10.2C2.04 12.478 2.8305 14.4075 4.4115 15.9885C5.9925 17.5695 7.922 18.36 10.2 18.36Z" fill="white"/>
</svg>
