<svg width="47" height="64" viewBox="0 0 47 64" fill="none" xmlns="http://www.w3.org/2000/svg">
<rect width="46.8" height="64" rx="23.4" fill="#F6F8F6"/>
<path d="M19.6499 18.875H27.1499V21.3945H19.6499V18.875ZM32.189 26.9023L33.9468 25.0859C33.6733 24.7734 33.3901 24.4707 33.0972 24.1777C32.8042 23.8848 32.5015 23.6016 32.189 23.3281L30.4312 25.1445C29.4546 24.3633 28.3706 23.748 27.1792 23.2988C25.9878 22.8496 24.728 22.625 23.3999 22.625C21.8374 22.625 20.3823 22.918 19.0347 23.5039C17.687 24.0898 16.4956 24.9004 15.4604 25.9355C14.4253 26.9707 13.6147 28.1719 13.0288 29.5391C12.4429 30.9062 12.1499 32.3516 12.1499 33.875C12.1499 35.4375 12.4429 36.9023 13.0288 38.2695C13.6147 39.6367 14.4253 40.8281 15.4604 41.8438C16.4956 42.8594 17.687 43.6602 19.0347 44.2461C20.3823 44.832 21.8374 45.125 23.3999 45.125C24.9624 45.125 26.4175 44.832 27.7651 44.2461C29.1128 43.6602 30.3042 42.8594 31.3394 41.8438C32.3745 40.8281 33.1851 39.6367 33.771 38.2695C34.3569 36.9023 34.6499 35.4375 34.6499 33.875C34.6499 32.5469 34.4351 31.2871 34.0054 30.0957C33.5757 28.9043 32.9702 27.8398 32.189 26.9023ZM24.6304 35.1641H22.1694V27.6641H24.6304V35.1641Z" fill="#4A4A4A"/>
</svg>
