<svg width="20" height="20" viewBox="0 0 20 20" fill="none" xmlns="http://www.w3.org/2000/svg">
<path d="M6.44531 13.5234C7.42969 14.5078 8.60938 15 9.98438 15C11.3594 15 12.5391 14.5078 13.5234 13.5234C14.5078 12.5391 15 11.3594 15 9.98438C15 8.60938 14.5078 7.42969 13.5234 6.44531C12.5391 5.46094 11.3594 4.96875 9.98438 4.96875C8.60938 4.96875 7.42969 5.46094 6.44531 6.44531C5.46094 7.42969 4.96875 8.60938 4.96875 9.98438C4.96875 11.3594 5.46094 12.5391 6.44531 13.5234ZM6.98438 0H12.9844L14.8125 1.96875H18C18.5312 1.96875 18.9922 2.17188 19.3828 2.57812C19.7734 2.98438 19.9688 3.45312 19.9688 3.98438V15.9844C19.9688 16.5156 19.7734 16.9844 19.3828 17.3906C18.9922 17.7969 18.5312 18 18 18H1.96875C1.4375 18 0.976562 17.7969 0.585938 17.3906C0.195312 16.9844 0 16.5156 0 15.9844V3.98438C0 3.45312 0.195312 2.98438 0.585938 2.57812C0.976562 2.17188 1.4375 1.96875 1.96875 1.96875H5.15625L6.98438 0ZM7.73438 12.2344C7.10938 11.6094 6.79688 10.8594 6.79688 9.98438C6.79688 9.10938 7.10938 8.35938 7.73438 7.73438C8.35938 7.10938 9.10938 6.79688 9.98438 6.79688C10.8594 6.79688 11.6094 7.10938 12.2344 7.73438C12.8594 8.35938 13.1719 9.10938 13.1719 9.98438C13.1719 10.8594 12.8594 11.6094 12.2344 12.2344C11.6094 12.8594 10.8594 13.1719 9.98438 13.1719C9.10938 13.1719 8.35938 12.8594 7.73438 12.2344Z" fill="#5C5F5B"/>
</svg>
