<svg width="17" height="17" viewBox="0 0 17 17" fill="none" xmlns="http://www.w3.org/2000/svg">
<path d="M12.5 11.3281L9.49219 8.32031L12.5 5.3125L11.3281 4.14062L8.32031 7.14844L5.3125 4.14062L4.14062 5.3125L7.14844 8.32031L4.14062 11.3281L5.3125 12.5L8.32031 9.49219L11.3281 12.5L12.5 11.3281ZM2.44141 2.44141C4.06901 0.813802 6.02865 0 8.32031 0C10.612 0 12.5716 0.813802 14.1992 2.44141C15.8268 4.06901 16.6406 6.02865 16.6406 8.32031C16.6406 10.612 15.8268 12.5716 14.1992 14.1992C12.5716 15.8268 10.612 16.6406 8.32031 16.6406C6.02865 16.6406 4.06901 15.8268 2.44141 14.1992C0.813802 12.5716 0 10.612 0 8.32031C0 6.02865 0.813802 4.06901 2.44141 2.44141Z" fill="#EBEDEA"/>
</svg>
