<svg width="12" height="12" viewBox="0 0 12 12" fill="none" xmlns="http://www.w3.org/2000/svg">
<path d="M10.8281 7.49219L11.6484 8.33984L10.418 9.57031L11.2383 10.418L10.418 11.2383L9.57031 10.418L8.33984 11.6484L7.49219 10.8281L6.67188 11.6484L5.82422 10.8281L7.90234 8.75L2.89844 3.74609L0.820312 5.82422L0 4.97656L0.820312 4.15625L0 3.30859L1.23047 2.07812L0.410156 1.23047L1.23047 0.410156L2.07812 1.23047L3.30859 0L4.15625 0.820312L4.97656 0L5.82422 0.820312L3.74609 2.89844L8.75 7.90234L10.8281 5.82422L11.6484 6.67188L10.8281 7.49219Z" fill="#4A4A4A"/>
</svg>
