<svg width="12" height="12" viewBox="0 0 12 12" fill="none" xmlns="http://www.w3.org/2000/svg">
<path d="M6.59167 11.55L5.775 10.7333L7.84583 8.6625L2.8875 3.70417L0.816667 5.775L0 4.95833L0.816667 4.1125L0 3.29583L1.225 2.07083L0.408333 1.225L1.225 0.408333L2.07083 1.225L3.29583 0L4.1125 0.816667L4.95833 0L5.775 0.816667L3.70417 2.8875L8.6625 7.84583L10.7333 5.775L11.55 6.59167L10.7333 7.4375L11.55 8.25417L10.325 9.47917L11.1417 10.325L10.325 11.1417L9.47917 10.325L8.25417 11.55L7.4375 10.7333L6.59167 11.55V11.55" fill="#61896F"/>
</svg>
