<svg width="24" height="24" viewBox="0 0 24 24" fill="none" xmlns="http://www.w3.org/2000/svg">
<g clip-path="url(#clip0_1736_7344)">
<path d="M11.7058 19.5C4.04709 19.5 0.250028 12.6555 0.0921829 12.3643C-0.0307276 12.1376 -0.0307276 11.8622 0.0921829 11.6355C0.250028 11.3445 4.04709 4.5 11.7058 4.5C19.3644 4.5 23.1615 11.3445 23.3193 11.6357C23.4423 11.8624 23.4423 12.1378 23.3193 12.3645C23.1615 12.6555 19.3644 19.5 11.7058 19.5ZM1.59253 11.9989C2.46278 13.3509 5.87959 18 11.7058 18C17.5504 18 20.952 13.3547 21.819 12.0011C20.9487 10.6491 17.5319 6 11.7058 6C5.86111 6 2.45949 10.6453 1.59253 11.9989ZM11.7058 16.5C9.28523 16.5 7.3161 14.4814 7.3161 12C7.3161 9.51862 9.28523 7.5 11.7058 7.5C14.1263 7.5 16.0954 9.51862 16.0954 12C16.0954 14.4814 14.1263 16.5 11.7058 16.5ZM11.7058 9C10.0922 9 8.77932 10.3459 8.77932 12C8.77932 13.6541 10.0922 15 11.7058 15C13.3193 15 14.6322 13.6541 14.6322 12C14.6322 10.3459 13.3193 9 11.7058 9Z" fill="#949494"/>
</g>
<defs>
<clipPath id="clip0_1736_7344">
<rect width="23.4115" height="24" fill="white"/>
</clipPath>
</defs>
</svg>
