<svg width="20" height="20" viewBox="0 0 20 20" fill="none" xmlns="http://www.w3.org/2000/svg">
<path d="M19.9688 9.98438C19.9688 8.60938 19.7109 7.32031 19.1953 6.11719C18.6797 4.91406 17.9609 3.85156 17.0391 2.92969C16.1172 2.00781 15.0547 1.28906 13.8516 0.773438C12.6484 0.257812 11.3594 0 9.98438 0C8.60938 0 7.32031 0.257812 6.11719 0.773438C4.91406 1.28906 3.85156 2.00781 2.92969 2.92969C2.00781 3.85156 1.28906 4.91406 0.773438 6.11719C0.257812 7.32031 0 8.60938 0 9.98438C0 11.2031 0.195312 12.3516 0.585938 13.4297C0.976562 14.5078 1.53906 15.4844 2.27344 16.3594C3.00781 17.2344 3.85938 17.9688 4.82812 18.5625C5.79688 19.1562 6.84375 19.5625 7.96875 19.7812V12.9844H6V9.98438H7.96875V7.5C7.96875 6.84375 8.13281 6.25 8.46094 5.71875C8.78906 5.1875 9.21094 4.76562 9.72656 4.45312C10.2422 4.14062 10.8281 3.98438 11.4844 3.98438H13.9688V6.98438H12C11.7188 6.98438 11.4766 7.08594 11.2734 7.28906C11.0703 7.49219 10.9688 7.71875 10.9688 7.96875V9.98438H13.9688V12.9844H10.9688V19.9219C12.25 19.7969 13.4375 19.4531 14.5312 18.8906C15.625 18.3281 16.5781 17.6016 17.3906 16.7109C18.2031 15.8203 18.8359 14.8047 19.2891 13.6641C19.7422 12.5234 19.9688 11.2969 19.9688 9.98438Z" fill="#5C5F5B"/>
</svg>
