<svg width="23" height="23" viewBox="0 0 23 23" fill="none" xmlns="http://www.w3.org/2000/svg">
<path d="M19.9805 19.9805V15H22.5V19.9805C22.5 20.6445 22.2461 21.2305 21.7383 21.7383C21.2305 22.2461 20.6445 22.5 19.9805 22.5H15V19.9805H19.9805ZM19.9805 0C20.6445 0 21.2305 0.253906 21.7383 0.761719C22.2461 1.26953 22.5 1.85547 22.5 2.51953V7.5H19.9805V2.51953H15V0H19.9805ZM2.51953 2.51953V7.5H0V2.51953C0 1.85547 0.253906 1.26953 0.761719 0.761719C1.26953 0.253906 1.85547 0 2.51953 0H7.5V2.51953H2.51953ZM2.51953 15V19.9805H7.5V22.5H2.51953C1.85547 22.5 1.26953 22.2461 0.761719 21.7383C0.253906 21.2305 0 20.6445 0 19.9805V15H2.51953ZM7.73438 7.73438C8.71094 6.75781 9.88281 6.26953 11.25 6.26953C12.6172 6.26953 13.7891 6.75781 14.7656 7.73438C15.7422 8.71094 16.2305 9.88281 16.2305 11.25C16.2305 12.6172 15.7422 13.7891 14.7656 14.7656C13.7891 15.7422 12.6172 16.2305 11.25 16.2305C9.88281 16.2305 8.71094 15.7422 7.73438 14.7656C6.75781 13.7891 6.26953 12.6172 6.26953 11.25C6.26953 9.88281 6.75781 8.71094 7.73438 7.73438Z" fill="#4A4A4A"/>
</svg>
