<svg width="21" height="23" viewBox="0 0 21 23" fill="none" xmlns="http://www.w3.org/2000/svg">
<path d="M11.2667 6.97266C10.798 6.97266 10.3878 7.14844 10.0363 7.5C9.68471 7.85156 9.50893 8.26172 9.50893 8.73047C9.50893 9.23828 9.68471 9.66797 10.0363 10.0195C10.3878 10.3711 10.798 10.5469 11.2667 10.5469C11.7746 10.5469 12.2042 10.3711 12.5558 10.0195C12.9074 9.66797 13.0831 9.23828 13.0831 8.73047C13.0831 8.26172 12.9074 7.85156 12.5558 7.5C12.2042 7.14844 11.7746 6.97266 11.2667 6.97266ZM11.2667 0C10.0949 0 9.00112 0.214844 7.98549 0.644531C6.96987 1.07422 6.06166 1.66992 5.26088 2.43164C4.4601 3.19336 3.82533 4.07227 3.35658 5.06836C2.88783 6.06445 2.6144 7.14844 2.53627 8.32031L0.133929 11.4844C-0.0223214 11.7188 -0.0418527 11.9434 0.0753348 12.1582C0.192522 12.373 0.387835 12.4805 0.661272 12.4805H2.53627V16.2305C2.53627 16.9336 2.78041 17.5293 3.26869 18.0176C3.75698 18.5059 4.35268 18.75 5.0558 18.75H6.28627V22.5H15.0167V16.6406C16.5011 15.9375 17.7121 14.8828 18.6496 13.4766C19.5871 12.0703 20.0558 10.4883 20.0558 8.73047C20.0558 7.51953 19.8214 6.38672 19.3527 5.33203C18.8839 4.27734 18.2492 3.34961 17.4484 2.54883C16.6476 1.74805 15.7199 1.12305 14.6652 0.673828C13.6105 0.224609 12.4777 0 11.2667 0ZM15.0167 8.73047C15.0167 8.80859 15.0167 8.89648 15.0167 8.99414C15.0167 9.0918 15.0167 9.17969 15.0167 9.25781L16.0714 10.0781C16.1496 10.1562 16.1691 10.2539 16.13 10.3711L15.1339 12.1289C15.0558 12.2461 14.9386 12.2852 14.7824 12.2461L13.5519 11.7188C13.3175 11.9141 13.0441 12.0703 12.7316 12.1875L12.5558 13.5352C12.5167 13.6914 12.4191 13.7695 12.2628 13.7695H10.2706C10.1535 13.7695 10.0753 13.6914 10.0363 13.5352L9.86049 12.1875C9.54799 12.0703 9.25502 11.9141 8.98158 11.7188L7.75112 12.2461C7.63393 12.2852 7.53627 12.2461 7.45815 12.1289L6.46205 10.3711C6.38393 10.2539 6.40346 10.1562 6.52065 10.0781L7.57534 9.25781C7.57534 9.17969 7.56557 9.0918 7.54604 8.99414C7.52651 8.89648 7.51674 8.80859 7.51674 8.73047C7.51674 8.65234 7.52651 8.57422 7.54604 8.49609C7.56557 8.41797 7.57534 8.33984 7.57534 8.26172L6.52065 7.44141C6.40346 7.36328 6.38393 7.24609 6.46205 7.08984L7.45815 5.39062C7.53627 5.27344 7.63393 5.23438 7.75112 5.27344L9.04018 5.80078C9.31362 5.56641 9.58705 5.39062 9.86049 5.27344L10.0363 3.98438C10.0753 3.82812 10.1535 3.75 10.2706 3.75H12.2628C12.4191 3.75 12.5167 3.82812 12.5558 3.98438L12.7316 5.27344C13.005 5.39062 13.2785 5.56641 13.5519 5.80078L14.7824 5.27344C14.9386 5.23438 15.0558 5.27344 15.1339 5.39062L16.13 7.08984C16.2081 7.24609 16.1886 7.36328 16.0714 7.44141L14.9581 8.26172C14.9972 8.37891 15.0167 8.53516 15.0167 8.73047Z" fill="#4A4A4A"/>
</svg>
