<svg width="9" height="9" viewBox="0 0 9 9" fill="none" xmlns="http://www.w3.org/2000/svg">
<path d="M4.25 6.375C4.83792 6.375 5.33906 6.16781 5.75344 5.75344C6.16781 5.33906 6.375 4.83792 6.375 4.25C6.375 3.66208 6.16781 3.16094 5.75344 2.74656C5.33906 2.33219 4.83792 2.125 4.25 2.125C3.66208 2.125 3.16094 2.33219 2.74656 2.74656C2.33219 3.16094 2.125 3.66208 2.125 4.25C2.125 4.83792 2.33219 5.33906 2.74656 5.75344C3.16094 6.16781 3.66208 6.375 4.25 6.375ZM4.25 8.5C3.66208 8.5 3.10958 8.38844 2.5925 8.16531C2.07542 7.94219 1.62562 7.63938 1.24312 7.25688C0.860625 6.87438 0.557812 6.42458 0.334687 5.9075C0.111562 5.39042 0 4.83792 0 4.25C0 3.66208 0.111562 3.10958 0.334687 2.5925C0.557812 2.07542 0.860625 1.62562 1.24312 1.24312C1.62562 0.860625 2.07542 0.557812 2.5925 0.334687C3.10958 0.111562 3.66208 0 4.25 0C4.83792 0 5.39042 0.111562 5.9075 0.334687C6.42458 0.557812 6.87438 0.860625 7.25688 1.24312C7.63938 1.62562 7.94219 2.07542 8.16531 2.5925C8.38844 3.10958 8.5 3.66208 8.5 4.25C8.5 4.83792 8.38844 5.39042 8.16531 5.9075C7.94219 6.42458 7.63938 6.87438 7.25688 7.25688C6.87438 7.63938 6.42458 7.94219 5.9075 8.16531C5.39042 8.38844 4.83792 8.5 4.25 8.5ZM4.25 7.65C5.19917 7.65 6.00312 7.32063 6.66187 6.66187C7.32063 6.00312 7.65 5.19917 7.65 4.25C7.65 3.30083 7.32063 2.49688 6.66187 1.83813C6.00312 1.17937 5.19917 0.85 4.25 0.85C3.30083 0.85 2.49688 1.17937 1.83813 1.83813C1.17937 2.49688 0.85 3.30083 0.85 4.25C0.85 5.19917 1.17937 6.00312 1.83813 6.66187C2.49688 7.32063 3.30083 7.65 4.25 7.65Z" fill="white"/>
</svg>
