<svg width="124" height="36" viewBox="0 0 124 36" fill="none" xmlns="http://www.w3.org/2000/svg">
<g filter="url(#filter0_d_35_4620)">
<rect x="2" y="1" width="32" height="32" rx="4" fill="#A49A87" shape-rendering="crispEdges"/>
<path d="M17.2678 23.75H16.4944L17.2678 18.5117H14.6311C14.2561 18.5117 14.1624 18.3477 14.3499 18.0195C14.4202 17.9023 14.4319 17.8672 14.385 17.9141C15.5803 15.8281 17.0334 13.2734 18.7444 10.25H19.5178L18.7444 15.4883H21.3811C21.7092 15.4883 21.8147 15.6523 21.6975 15.9805L17.2678 23.75Z" fill="white"/>
</g>
<path d="M43.1344 24V9.44922H53.2336V12.2625H46.5781V15.2719H52.7031V18.0258H46.5781V21.1867H53.225V24H43.1344ZM54.3316 24V9.44922H57.7754V21.1867H63.8606V24H54.3316ZM68.084 9.44922V24H64.6402V9.44922H68.084ZM68.8641 12.2625V9.44922H81.107V12.2625H76.7098V24H73.266V12.2625H68.8641ZM81.8883 24V9.44922H91.9875V12.2625H85.332V15.2719H91.457V18.0258H85.332V21.1867H91.9789V24H81.8883Z" fill="#1A1C19"/>
<path d="M94.0855 24V9.44922H103.975V12.2625H97.5293V15.9516H103.341V18.7055H97.5293V24H94.0855ZM109.238 9.44922V24H105.795V9.44922H109.238ZM111.018 12.2625V9.44922H123.261V12.2625H118.864V24H115.42V12.2625H111.018Z" fill="#A49A87"/>
<defs>
<filter id="filter0_d_35_4620" x="0" y="0" width="36" height="36" filterUnits="userSpaceOnUse" color-interpolation-filters="sRGB">
<feFlood flood-opacity="0" result="BackgroundImageFix"/>
<feColorMatrix in="SourceAlpha" type="matrix" values="0 0 0 0 0 0 0 0 0 0 0 0 0 0 0 0 0 0 127 0" result="hardAlpha"/>
<feOffset dy="1"/>
<feGaussianBlur stdDeviation="1"/>
<feComposite in2="hardAlpha" operator="out"/>
<feColorMatrix type="matrix" values="0 0 0 0 0 0 0 0 0 0 0 0 0 0 0 0 0 0 0.05 0"/>
<feBlend mode="normal" in2="BackgroundImageFix" result="effect1_dropShadow_35_4620"/>
<feBlend mode="normal" in="SourceGraphic" in2="effect1_dropShadow_35_4620" result="shape"/>
</filter>
</defs>
</svg>
