<svg width="12" height="12" viewBox="0 0 12 12" fill="none" xmlns="http://www.w3.org/2000/svg">
<path d="M5.83333 11.6667C5.02639 11.6667 4.26806 11.5135 3.55833 11.2073C2.84861 10.901 2.23125 10.4854 1.70625 9.96042C1.18125 9.43542 0.765625 8.81806 0.459375 8.10833C0.153125 7.39861 0 6.64028 0 5.83333C0 5.02639 0.153125 4.26806 0.459375 3.55833C0.765625 2.84861 1.18125 2.23125 1.70625 1.70625C2.23125 1.18125 2.84861 0.765625 3.55833 0.459375C4.26806 0.153125 5.02639 0 5.83333 0C6.64028 0 7.39861 0.153125 8.10833 0.459375C8.81806 0.765625 9.43542 1.18125 9.96042 1.70625C10.4854 2.23125 10.901 2.84861 11.2073 3.55833C11.5135 4.26806 11.6667 5.02639 11.6667 5.83333C11.6667 6.64028 11.5135 7.39861 11.2073 8.10833C10.901 8.81806 10.4854 9.43542 9.96042 9.96042C9.43542 10.4854 8.81806 10.901 8.10833 11.2073C7.39861 11.5135 6.64028 11.6667 5.83333 11.6667ZM8.75 4.375L9.5375 4.1125L9.77083 3.325C9.45972 2.85833 9.08542 2.45729 8.64792 2.12188C8.21042 1.78646 7.72917 1.53611 7.20417 1.37083L6.41667 1.925V2.74167L8.75 4.375ZM2.91667 4.375L5.25 2.74167V1.925L4.4625 1.37083C3.9375 1.53611 3.45625 1.78646 3.01875 2.12188C2.58125 2.45729 2.20694 2.85833 1.89583 3.325L2.12917 4.1125L2.91667 4.375ZM2.30417 8.86667L2.975 8.80833L3.4125 8.02083L2.56667 5.48333L1.75 5.19167L1.16667 5.62917C1.16667 6.26111 1.25417 6.83715 1.42917 7.35729C1.60417 7.87743 1.89583 8.38056 2.30417 8.86667ZM5.83333 10.5C6.08611 10.5 6.33403 10.4806 6.57708 10.4417C6.82014 10.4028 7.05833 10.3444 7.29167 10.2667L7.7 9.39167L7.32083 8.75H4.34583L3.96667 9.39167L4.375 10.2667C4.60833 10.3444 4.84653 10.4028 5.08958 10.4417C5.33264 10.4806 5.58056 10.5 5.83333 10.5ZM4.52083 7.58333H7.14583L7.9625 5.25L5.83333 3.7625L3.73333 5.25L4.52083 7.58333ZM9.3625 8.86667C9.77083 8.38056 10.0625 7.87743 10.2375 7.35729C10.4125 6.83715 10.5 6.26111 10.5 5.62917L9.91667 5.22083L9.1 5.48333L8.25417 8.02083L8.69167 8.80833L9.3625 8.86667Z" fill="#61896F"/>
</svg>
