<svg width="80" height="80" viewBox="0 0 80 80" fill="none" xmlns="http://www.w3.org/2000/svg">
<rect width="80" height="80" rx="16" fill="#A59B88" fill-opacity="0.1"/>
<path d="M36.5125 41.8L37.825 37.525L34.375 34.75H38.65L40 30.55L41.35 34.75H45.625L42.1375 37.525L43.45 41.8L40 39.1375L36.5125 41.8ZM31 55.75V44.1625C30.05 43.1125 29.3125 41.9125 28.7875 40.5625C28.2625 39.2125 28 37.775 28 36.25C28 32.9 29.1625 30.0625 31.4875 27.7375C33.8125 25.4125 36.65 24.25 40 24.25C43.35 24.25 46.1875 25.4125 48.5125 27.7375C50.8375 30.0625 52 32.9 52 36.25C52 37.775 51.7375 39.2125 51.2125 40.5625C50.6875 41.9125 49.95 43.1125 49 44.1625V55.75L40 52.75L31 55.75ZM40 45.25C42.5 45.25 44.625 44.375 46.375 42.625C48.125 40.875 49 38.75 49 36.25C49 33.75 48.125 31.625 46.375 29.875C44.625 28.125 42.5 27.25 40 27.25C37.5 27.25 35.375 28.125 33.625 29.875C31.875 31.625 31 33.75 31 36.25C31 38.75 31.875 40.875 33.625 42.625C35.375 44.375 37.5 45.25 40 45.25ZM34 51.2875L40 49.75L46 51.2875V46.6375C45.125 47.1375 44.1812 47.5312 43.1687 47.8188C42.1562 48.1063 41.1 48.25 40 48.25C38.9 48.25 37.8438 48.1063 36.8313 47.8188C35.8188 47.5312 34.875 47.1375 34 46.6375V51.2875Z" fill="#A59B88"/>
</svg>
