<svg width="32" height="37" viewBox="0 0 32 37" fill="none" xmlns="http://www.w3.org/2000/svg">
<rect width="32" height="37" rx="8" fill="#A59B88" fill-opacity="0.2"/>
<path d="M13.675 19.7L14.55 16.85L12.25 15H15.1L16 12.2L16.9 15H19.75L17.425 16.85L18.3 19.7L16 17.925L13.675 19.7ZM10 29V21.275C9.36667 20.575 8.875 19.775 8.525 18.875C8.175 17.975 8 17.0167 8 16C8 13.7667 8.775 11.875 10.325 10.325C11.875 8.775 13.7667 8 16 8C18.2333 8 20.125 8.775 21.675 10.325C23.225 11.875 24 13.7667 24 16C24 17.0167 23.825 17.975 23.475 18.875C23.125 19.775 22.6333 20.575 22 21.275V29L16 27L10 29ZM16 22C17.6667 22 19.0833 21.4167 20.25 20.25C21.4167 19.0833 22 17.6667 22 16C22 14.3333 21.4167 12.9167 20.25 11.75C19.0833 10.5833 17.6667 10 16 10C14.3333 10 12.9167 10.5833 11.75 11.75C10.5833 12.9167 10 14.3333 10 16C10 17.6667 10.5833 19.0833 11.75 20.25C12.9167 21.4167 14.3333 22 16 22ZM12 26.025L16 25L20 26.025V22.925C19.4167 23.2583 18.7875 23.5208 18.1125 23.7125C17.4375 23.9042 16.7333 24 16 24C15.2667 24 14.5625 23.9042 13.8875 23.7125C13.2125 23.5208 12.5833 23.2583 12 22.925V26.025Z" fill="#A59B88"/>
</svg>
