<svg width="185" height="54" viewBox="0 0 185 54" fill="none" xmlns="http://www.w3.org/2000/svg">
<path d="M177.291 53.68H7.57683C3.83986 53.68 0.794922 50.6704 0.794922 46.9768V6.73053C0.794922 3.03695 3.83986 0.0273743 7.57683 0.0273743H177.291C181.028 0.0273743 184.072 3.03695 184.072 6.73053V46.9768C184.072 50.6704 181 53.68 177.291 53.68Z" fill="black"/>
<path d="M177.291 1.07005C180.446 1.07005 182.993 3.58716 182.993 6.70618V46.9524C182.993 50.0715 180.446 52.5887 177.291 52.5887H7.57683C4.42116 52.5887 1.8745 50.0715 1.8745 46.9524V6.70618C1.8745 3.58716 4.42116 1.07005 7.57683 1.07005H177.291ZM177.291 0.00302124H7.57683C3.83986 0.00302124 0.794922 3.0126 0.794922 6.70618V46.9524C0.794922 50.6461 3.83986 53.6556 7.57683 53.6556H177.291C181.027 53.6556 184.073 50.6461 184.073 46.9524V6.70618C184.073 3.0126 181 0.00302124 177.291 0.00302124Z" fill="#A6A6A6"/>
<path d="M65.1588 13.7621C65.1588 14.8839 64.8266 15.7868 64.1623 16.4434C63.3872 17.2368 62.3907 17.6472 61.1728 17.6472C60.0101 17.6472 58.9859 17.2368 58.1831 16.4434C57.3526 15.6226 56.9375 14.6377 56.9375 13.4338C56.9375 12.23 57.3526 11.245 58.1831 10.4516C59.0135 9.65818 60.0101 9.24777 61.1728 9.24777C61.754 9.24777 62.3077 9.3572 62.8336 9.57608C63.3595 9.79496 63.8024 10.096 64.107 10.479L63.3872 11.1904C62.8336 10.5611 62.1139 10.2327 61.1451 10.2327C60.2869 10.2327 59.5395 10.5336 58.9305 11.1356C58.2938 11.7375 57.9894 12.5036 57.9894 13.4612C57.9894 14.4188 58.2938 15.1848 58.9305 15.7868C59.5672 16.3887 60.3146 16.6897 61.1451 16.6897C62.0585 16.6897 62.8059 16.3887 63.4149 15.7868C63.8024 15.4038 64.0516 14.8565 64.107 14.1452H61.1451V13.1876H65.0758C65.1588 13.3517 65.1588 13.5433 65.1588 13.7621Z" fill="white" stroke="white" stroke-width="0.199309" stroke-miterlimit="10"/>
<path d="M71.4184 10.3968H67.7091V12.9412H71.0586V13.8988H67.7091V16.4433H71.4184V17.4283H66.6572V9.38446H71.4184C71.4184 9.41182 71.4184 10.3968 71.4184 10.3968Z" fill="white" stroke="white" stroke-width="0.199309" stroke-miterlimit="10"/>
<path d="M75.8384 17.4554H74.7864V10.3966H72.5166V9.41159H78.1082V10.3966H75.8384V17.4554Z" fill="white" stroke="white" stroke-width="0.199309" stroke-miterlimit="10"/>
<path d="M82.1514 17.4554V9.41159H83.2032V17.4554H82.1514Z" fill="white" stroke="white" stroke-width="0.199309" stroke-miterlimit="10"/>
<path d="M87.854 17.4554H86.8022V10.3966H84.5322V9.41159H90.1239V10.3966H87.854V17.4554Z" fill="white" stroke="white" stroke-width="0.199309" stroke-miterlimit="10"/>
<path d="M100.728 16.4158C99.9257 17.2365 98.9288 17.647 97.7382 17.647C96.5477 17.647 95.5516 17.2365 94.7489 16.4158C93.9461 15.595 93.5586 14.6101 93.5586 13.4336C93.5586 12.2571 93.9461 11.2448 94.7489 10.4514C95.5516 9.63057 96.5477 9.22015 97.7382 9.22015C98.9288 9.22015 99.9257 9.63057 100.728 10.4514C101.531 11.2721 101.946 12.2571 101.946 13.4336C101.918 14.6101 101.531 15.595 100.728 16.4158ZM95.524 15.7318C96.1327 16.3337 96.8525 16.6347 97.7382 16.6347C98.5962 16.6347 99.3438 16.3337 99.9525 15.7318C100.562 15.1299 100.866 14.3638 100.866 13.4062C100.866 12.4486 100.562 11.6826 99.9525 11.0806C99.3438 10.4787 98.6239 10.1777 97.7382 10.1777C96.8525 10.1777 96.1327 10.4787 95.524 11.0806C94.9149 11.6826 94.6105 12.4486 94.6105 13.4062C94.6105 14.3638 94.9149 15.1299 95.524 15.7318Z" fill="white" stroke="white" stroke-width="0.199309" stroke-miterlimit="10"/>
<path d="M103.382 17.4554V9.41159H104.656L108.614 15.677H108.669L108.614 14.1174V9.41159H109.666V17.4554H108.586L104.434 10.8891H104.379L104.434 12.4486V17.4554H103.382Z" fill="white" stroke="white" stroke-width="0.199309" stroke-miterlimit="10"/>
<path d="M93.2854 29.1929C90.1021 29.1929 87.5 31.6005 87.5 34.9111C87.5 38.1943 90.1021 40.6292 93.2854 40.6292C96.469 40.6292 99.0983 38.1943 99.0983 34.9111C99.0983 31.6005 96.4968 29.1929 93.2854 29.1929ZM93.2854 38.3584C91.5415 38.3584 90.0191 36.9357 90.0191 34.9111C90.0191 32.8591 91.5138 31.4638 93.2854 31.4638C95.057 31.4638 96.5514 32.8591 96.5514 34.9111C96.5514 36.9357 95.0293 38.3584 93.2854 38.3584ZM80.6628 29.1929C77.4794 29.1929 74.8773 31.6005 74.8773 34.9111C74.8773 38.1943 77.4794 40.6292 80.6628 40.6292C83.8461 40.6292 86.4482 38.1943 86.4482 34.9111C86.4482 31.6005 83.8461 29.1929 80.6628 29.1929ZM80.6628 38.3584C78.9189 38.3584 77.3964 36.9357 77.3964 34.9111C77.3964 32.8591 78.9189 31.4638 80.6628 31.4638C82.4067 31.4638 83.9291 32.8591 83.9291 34.9111C83.9015 36.9357 82.4067 38.3584 80.6628 38.3584ZM65.6041 30.9439V33.3789H71.4726C71.3065 34.747 70.8359 35.7319 70.1438 36.4158C69.2857 37.264 67.9571 38.1943 65.6041 38.1943C62.0056 38.1943 59.1821 35.3214 59.1821 31.7647C59.1821 28.2079 62.0056 25.3351 65.6041 25.3351C67.5419 25.3351 68.9813 26.1012 70.0331 27.0588L71.7494 25.3625C70.2823 23.9672 68.3446 22.9275 65.6041 22.9275C60.6492 22.9275 56.4971 26.8946 56.4971 31.7921C56.4971 36.6895 60.6492 40.6567 65.6041 40.6567C68.2892 40.6567 70.2823 39.7811 71.8601 38.1669C73.4656 36.58 73.9915 34.3092 73.9915 32.5034C73.9915 31.9289 73.9362 31.409 73.8531 30.9987C73.8531 30.9439 65.6041 30.9439 65.6041 30.9439ZM127.112 32.8317C126.641 31.5458 125.175 29.1929 122.157 29.1929C119.195 29.1929 116.704 31.5185 116.704 34.9111C116.704 38.1122 119.14 40.6292 122.434 40.6292C125.091 40.6292 126.613 39.0424 127.25 38.1122L125.285 36.8263C124.621 37.7838 123.735 38.4131 122.434 38.4131C121.16 38.4131 120.219 37.8385 119.638 36.6895L127.361 33.5431C127.389 33.461 127.112 32.8317 127.112 32.8317ZM119.251 34.7195C119.195 32.5307 120.967 31.3817 122.267 31.3817C123.264 31.3817 124.122 31.8741 124.427 32.5855C124.399 32.6129 119.251 34.7195 119.251 34.7195ZM112.967 40.2736H115.513V23.5021H112.967V40.2736ZM108.815 30.4514H108.732C108.15 29.7948 107.071 29.1929 105.686 29.1929C102.808 29.1929 100.151 31.71 100.151 34.9111C100.151 38.1122 102.808 40.6019 105.686 40.6019C107.071 40.6019 108.15 40 108.732 39.316H108.815V40.1368C108.815 42.3256 107.625 43.5021 105.742 43.5021C104.192 43.5021 103.223 42.4077 102.836 41.4775L100.621 42.3803C101.258 43.8851 102.946 45.7456 105.742 45.7456C108.732 45.7456 111.223 44.0219 111.223 39.8085V29.5485H108.815V30.4514ZM105.908 38.3584C104.164 38.3584 102.697 36.9083 102.697 34.9111C102.697 32.8865 104.164 31.4363 105.908 31.4363C107.625 31.4363 108.981 32.9138 108.981 34.9111C108.981 36.9083 107.625 38.3584 105.908 38.3584ZM139.015 23.4746H132.952V40.2463H135.471V33.8987H139.015C141.838 33.8987 144.579 31.8741 144.579 28.7004C144.579 25.4993 141.81 23.4746 139.015 23.4746ZM139.071 31.5731H135.471V25.8276H139.071C140.952 25.8276 142.032 27.3871 142.032 28.7004C142.032 29.9863 140.952 31.5731 139.071 31.5731ZM154.738 29.1655C152.911 29.1655 151.001 29.9589 150.225 31.7373L152.468 32.6675C152.939 31.7373 153.853 31.4363 154.793 31.4363C156.095 31.4363 157.451 32.2299 157.451 33.5978V33.7619C156.98 33.4884 156.011 33.1053 154.793 33.1053C152.385 33.1053 149.894 34.4186 149.894 36.881C149.894 39.1245 151.887 40.5746 154.101 40.5746C155.818 40.5746 156.759 39.8085 157.34 38.9329H157.423V40.2189H159.859V33.7893C159.887 30.8345 157.645 29.1655 154.738 29.1655ZM154.433 38.3584C153.603 38.3584 152.441 37.948 152.441 36.9357C152.441 35.6497 153.879 35.1299 155.125 35.1299C156.233 35.1299 156.759 35.3762 157.451 35.7045C157.229 37.264 155.901 38.3584 154.433 38.3584ZM168.8 29.5212L165.894 36.7989H165.81L162.793 29.5212H160.052L164.564 39.6717L161.991 45.3351H164.648L171.623 29.5212H168.8ZM145.963 40.2736H148.51V23.5021H145.963V40.2736Z" fill="white"/>
<path d="M14.9453 10.1229C14.5577 10.5333 14.3086 11.1899 14.3086 12.0107V41.6961C14.3086 42.5169 14.5301 43.1736 14.9453 43.5839L15.0561 43.666L31.8863 27.0312V26.6482L15.0561 10.0134L14.9453 10.1229Z" fill="url(#paint0_linear_905_343)"/>
<path d="M37.4822 32.5854L31.8906 27.0313V26.6483L37.5099 21.0942L37.6483 21.1763L44.2919 24.9246C46.1742 25.9917 46.1742 27.7427 44.2919 28.8097L37.6483 32.5307C37.6206 32.5033 37.4822 32.5854 37.4822 32.5854Z" fill="url(#paint1_linear_905_343)"/>
<path d="M37.6131 32.5036L31.883 26.8401L14.9697 43.557C15.6064 44.2136 16.6306 44.2957 17.7932 43.6391L37.6131 32.5036Z" fill="url(#paint2_linear_905_343)"/>
<path d="M37.6094 21.1765L17.762 10.0411C16.5994 9.38444 15.5751 9.46651 14.9385 10.1231L31.8517 26.84L37.6094 21.1765Z" fill="url(#paint3_linear_905_343)"/>
<defs>
<linearGradient id="paint0_linear_905_343" x1="30.3771" y1="41.9934" x2="2.49508" y2="13.4506" gradientUnits="userSpaceOnUse">
<stop stop-color="#00A0FF"/>
<stop offset="0.0066" stop-color="#00A1FF"/>
<stop offset="0.2601" stop-color="#00BEFF"/>
<stop offset="0.5122" stop-color="#00D2FF"/>
<stop offset="0.7604" stop-color="#00DFFF"/>
<stop offset="1" stop-color="#00E3FF"/>
</linearGradient>
<linearGradient id="paint1_linear_905_343" x1="46.7227" y1="26.8416" x2="5.55839" y2="26.8416" gradientUnits="userSpaceOnUse">
<stop stop-color="#FFE000"/>
<stop offset="0.4087" stop-color="#FFBD00"/>
<stop offset="0.7754" stop-color="#FFA500"/>
<stop offset="1" stop-color="#FF9C00"/>
</linearGradient>
<linearGradient id="paint2_linear_905_343" x1="23.1558" y1="34.9584" x2="-14.6545" y2="-3.74791" gradientUnits="userSpaceOnUse">
<stop stop-color="#FF3A44"/>
<stop offset="1" stop-color="#C31162"/>
</linearGradient>
<linearGradient id="paint3_linear_905_343" x1="-0.645349" y1="42.249" x2="16.2387" y2="24.965" gradientUnits="userSpaceOnUse">
<stop stop-color="#32A071"/>
<stop offset="0.0685" stop-color="#2DA771"/>
<stop offset="0.4762" stop-color="#15CF74"/>
<stop offset="0.8009" stop-color="#06E775"/>
<stop offset="1" stop-color="#00F076"/>
</linearGradient>
</defs>
</svg>
