<svg width="153" height="40" viewBox="0 0 153 40" fill="none" xmlns="http://www.w3.org/2000/svg">
<rect x="0.5" y="0.5" width="145" height="39" rx="9.5" fill="white"/>
<rect x="0.5" y="0.5" width="145" height="39" rx="9.5" stroke="#A6A6A6"/>
<g clip-path="url(#clip0_643_73)">
<path d="M30.2468 18.8095L18.1106 6.64034L33.5516 15.5046L30.2468 18.8095ZM14.9433 5.92548C14.2284 6.2994 13.75 6.98127 13.75 7.8666V32.1334C13.75 33.0187 14.2284 33.7006 14.9433 34.0745L29.0535 19.9972L14.9433 5.92548ZM38.3247 18.3311L35.0858 16.4559L31.473 20.0027L35.0858 23.5495L38.3907 21.6744C39.3805 20.8881 39.3805 19.1174 38.3247 18.3311ZM18.1106 33.3651L33.5516 24.5009L30.2468 21.196L18.1106 33.3651Z" fill="#0F172A"/>
</g>
<g opacity="0.6">
<path d="M50.832 11.272H53.208V14H52.576L52.544 13.328C52.248 13.8 51.712 14.08 50.936 14.08C49.456 14.08 48.488 13.056 48.488 11.36C48.488 9.68 49.48 8.64 51 8.64C52.096 8.64 52.768 9.032 53.176 9.888L52.392 10.264C52.184 9.68 51.68 9.384 51.016 9.384C50.024 9.384 49.384 10.104 49.384 11.36C49.384 12.624 49.952 13.344 51.032 13.344C51.832 13.344 52.448 12.944 52.448 12.128V11.976H50.832V11.272ZM55.4291 13.264H58.5091V14H54.5731V8.72H58.3971V9.456H55.4291V10.976H57.7491V11.696H55.4291V13.264ZM63.587 8.72V9.456H61.779V14H60.923V9.456H59.115V8.72H63.587ZM67.8744 8.72V14H67.0184V8.72H67.8744ZM73.3683 8.72V9.456H71.5603V14H70.7043V9.456H68.8963V8.72H73.3683ZM78.9916 8.64C80.5276 8.64 81.4876 9.68 81.4876 11.36C81.4876 13.04 80.5276 14.08 78.9916 14.08C77.4636 14.08 76.5036 13.04 76.5036 11.36C76.5036 9.68 77.4636 8.64 78.9916 8.64ZM78.9916 9.384C77.9996 9.384 77.3996 10.104 77.3996 11.36C77.3996 12.616 77.9996 13.336 78.9916 13.336C79.9916 13.336 80.5916 12.616 80.5916 11.36C80.5916 10.104 79.9916 9.384 78.9916 9.384ZM87.0886 8.72V14H86.0726L84.0326 10.672L83.5206 9.696H83.5126L83.5446 10.592V14H82.7606V8.72H83.7686L85.8006 12.04L86.3206 13.024H86.3286L86.2966 12.128V8.72H87.0886Z" fill="#0F172A"/>
</g>
<path d="M53.19 24.765H57.87V30H56.355L56.31 28.815C55.74 29.655 54.78 30.15 53.385 30.15C50.67 30.15 48.795 28.29 48.795 25.065C48.795 21.885 50.67 19.95 53.61 19.95C55.755 19.95 57.045 20.7 57.825 22.38L55.92 23.205C55.605 22.155 54.765 21.645 53.67 21.645C51.975 21.645 50.94 22.845 50.94 25.05C50.94 27.3 51.885 28.485 53.715 28.485C55.05 28.485 56.085 27.84 56.085 26.52V26.295H53.19V24.765ZM63.3698 22.35C65.7848 22.35 67.2098 23.805 67.2098 26.25C67.2098 28.695 65.7848 30.15 63.3698 30.15C60.9548 30.15 59.5298 28.695 59.5298 26.25C59.5298 23.805 60.9548 22.35 63.3698 22.35ZM63.3698 23.88C62.2148 23.88 61.5848 24.66 61.5848 26.25C61.5848 27.84 62.2148 28.62 63.3698 28.62C64.5248 28.62 65.1548 27.84 65.1548 26.25C65.1548 24.66 64.5248 23.88 63.3698 23.88ZM72.4226 22.35C74.8376 22.35 76.2626 23.805 76.2626 26.25C76.2626 28.695 74.8376 30.15 72.4226 30.15C70.0076 30.15 68.5826 28.695 68.5826 26.25C68.5826 23.805 70.0076 22.35 72.4226 22.35ZM72.4226 23.88C71.2676 23.88 70.6376 24.66 70.6376 26.25C70.6376 27.84 71.2676 28.62 72.4226 28.62C73.5776 28.62 74.2076 27.84 74.2076 26.25C74.2076 24.66 73.5776 23.88 72.4226 23.88ZM82.5267 28.59C84.1467 28.59 85.0917 29.325 85.0917 30.675C85.0917 32.31 83.4117 33.225 81.0567 33.225C78.4767 33.225 77.3667 32.475 77.3667 31.38C77.3667 30.72 77.8167 30.18 78.7317 29.955C78.1167 29.685 77.6217 29.19 77.6217 28.455C77.6217 27.705 78.1017 27.195 78.8217 26.94C78.0417 26.505 77.6367 25.8 77.6367 24.9C77.6367 23.325 78.9567 22.35 81.0867 22.35C81.6417 22.35 82.1517 22.41 82.5867 22.545C82.8267 21.435 83.5167 20.655 84.8667 20.715L85.1367 22.185C84.1917 22.095 83.6067 22.395 83.3817 22.89C84.1167 23.325 84.5217 24.015 84.5217 24.9C84.5217 26.46 83.2167 27.435 81.0867 27.435C80.5917 27.435 80.1417 27.39 79.7367 27.3C79.3017 27.405 79.1367 27.63 79.1367 27.975C79.1367 28.38 79.4667 28.59 79.9917 28.59H82.5267ZM81.0867 23.64C80.2917 23.64 79.7067 24.135 79.7067 24.885C79.7067 25.65 80.2917 26.145 81.0867 26.145C81.8817 26.145 82.4517 25.65 82.4517 24.885C82.4517 24.135 81.8817 23.64 81.0867 23.64ZM81.2217 31.815C82.6767 31.815 83.4117 31.395 83.4117 30.885C83.4117 30.495 83.1417 30.255 82.2867 30.255H80.2467C79.3767 30.255 79.0017 30.495 79.0017 30.93C79.0017 31.47 79.6917 31.815 81.2217 31.815ZM88.3853 19.215V27.615C88.3853 28.32 88.5653 28.575 89.1203 28.575C89.4653 28.575 89.6753 28.53 90.0053 28.41L89.8253 29.835C89.4953 30.03 88.9253 30.15 88.4303 30.15C86.9753 30.15 86.3303 29.475 86.3303 27.915V19.215H88.3853ZM98.1553 26.22C98.1553 26.43 98.1253 26.835 98.0953 27.03H92.7853C92.9953 28.11 93.6553 28.62 94.6603 28.62C95.5303 28.62 96.1003 28.29 96.3103 27.69L97.9903 28.305C97.5103 29.505 96.3553 30.15 94.6603 30.15C92.1703 30.15 90.7603 28.71 90.7603 26.25C90.7603 23.79 92.1253 22.35 94.5403 22.35C96.8803 22.35 98.1553 23.76 98.1553 26.22ZM94.5253 23.865C93.5353 23.865 92.9353 24.45 92.7703 25.59H96.2653C96.1003 24.465 95.4703 23.865 94.5253 23.865ZM108.831 20.1C111.126 20.1 112.476 21.255 112.476 23.28C112.476 25.245 111.126 26.4 108.831 26.4H106.746V30H104.676V20.1H108.831ZM108.516 24.795C109.806 24.795 110.376 24.27 110.376 23.265C110.376 22.26 109.806 21.75 108.516 21.75H106.746V24.795H108.516ZM116.188 19.215V27.615C116.188 28.32 116.368 28.575 116.923 28.575C117.268 28.575 117.478 28.53 117.808 28.41L117.628 29.835C117.298 30.03 116.728 30.15 116.233 30.15C114.778 30.15 114.133 29.475 114.133 27.915V19.215H116.188ZM125.823 28.755C126.003 28.755 126.183 28.74 126.333 28.695L126.183 29.94C125.913 30.075 125.583 30.15 125.208 30.15C124.308 30.15 123.693 29.835 123.483 29.025C123.033 29.76 122.088 30.15 120.828 30.15C119.403 30.15 118.503 29.49 118.503 28.23C118.503 27.06 119.418 26.235 121.428 25.86L123.228 25.515V25.155C123.228 24.36 122.763 23.85 121.953 23.85C121.083 23.85 120.453 24.18 120.228 25.125L118.593 24.435C118.908 23.16 120.033 22.35 121.863 22.35C123.948 22.35 125.268 23.25 125.268 25.11V28.185C125.268 28.575 125.433 28.755 125.823 28.755ZM121.473 28.755C122.253 28.755 123.228 28.35 123.228 27.555V26.775L121.623 27.135C120.963 27.285 120.618 27.525 120.618 28.02C120.618 28.5 120.933 28.755 121.473 28.755ZM134.297 22.5L131.267 30.465C130.532 32.505 129.662 33.225 128.042 33.225C127.217 33.225 126.617 33.045 126.137 32.64L126.647 31.185C126.977 31.56 127.367 31.65 127.907 31.65C128.477 31.65 128.867 31.47 129.137 30.75L129.407 30.105L128.582 28.155L126.287 22.5H128.567L129.977 27L130.382 28.5L130.832 26.91L132.212 22.5H134.297Z" fill="#0F172A"/>
<defs>
<clipPath id="clip0_643_73">
<rect width="28" height="28" fill="white" transform="translate(12 6)"/>
</clipPath>
</defs>
</svg>
