<svg width="42" height="42" viewBox="0 0 42 42" fill="none" xmlns="http://www.w3.org/2000/svg">
<mask id="mask0_905_186" style="mask-type:luminance" maskUnits="userSpaceOnUse" x="0" y="0" width="42" height="42">
<path d="M42 0H0V42H42V0Z" fill="white"/>
</mask>
<g mask="url(#mask0_905_186)">
<path d="M0.00892974 29.1441C0.00892974 34.666 4.48501 39.142 10.0068 39.142C15.5287 39.142 20.0047 34.666 20.0047 29.1441C20.0047 23.6222 15.5287 19.1462 10.0068 19.1462C8.87198 19.1462 7.7857 19.3441 6.76877 19.6927C9.01872 6.78863 19.0814 -1.53301 9.75333 5.31587C-0.590096 12.9105 -0.00214804 28.8385 0.00942576 29.1305C0.00942576 29.135 0.00892974 29.1391 0.00892974 29.1441Z" fill="#1E90FF"/>
<path d="M22.004 29.1441C22.004 34.666 26.4801 39.142 32.002 39.142C37.5238 39.142 41.9999 34.666 41.9999 29.1441C41.9999 23.6222 37.5237 19.1462 32.0019 19.1462C30.867 19.1462 29.7808 19.3441 28.7639 19.6927C31.0138 6.78863 41.0765 -1.53301 31.7484 5.31587C21.405 12.9105 21.9929 28.8385 22.0045 29.1305C22.0045 29.135 22.004 29.1391 22.004 29.1441Z" fill="#1E90FF"/>
</g>
</svg>
