<svg width="56" height="56" viewBox="0 0 56 56" fill="none" xmlns="http://www.w3.org/2000/svg">
<rect width="56" height="56" rx="28" fill="#A49A87" fill-opacity="0.2"/>
<path d="M29.75 40.375L28 38.625L32.4375 34.1875L21.8125 23.5625L17.375 28L15.625 26.25L17.375 24.4375L15.625 22.6875L18.25 20.0625L16.5 18.25L18.25 16.5L20.0625 18.25L22.6875 15.625L24.4375 17.375L26.25 15.625L28 17.375L23.5625 21.8125L34.1875 32.4375L38.625 28L40.375 29.75L38.625 31.5625L40.375 33.3125L37.75 35.9375L39.5 37.75L37.75 39.5L35.9375 37.75L33.3125 40.375L31.5625 38.625L29.75 40.375Z" fill="#4A4A4A"/>
</svg>
