<svg width="30" height="30" viewBox="0 0 30 30" fill="none" xmlns="http://www.w3.org/2000/svg">
<path d="M14.25 18.75L24.75 12L14.25 5.25V18.75ZM9 24C8.175 24 7.46875 23.7062 6.88125 23.1187C6.29375 22.5312 6 21.825 6 21V3C6 2.175 6.29375 1.46875 6.88125 0.88125C7.46875 0.29375 8.175 0 9 0H27C27.825 0 28.5312 0.29375 29.1187 0.88125C29.7062 1.46875 30 2.175 30 3V21C30 21.825 29.7062 22.5312 29.1187 23.1187C28.5312 23.7062 27.825 24 27 24H9ZM9 21H27V3H9V21ZM3 30C2.175 30 1.46875 29.7062 0.88125 29.1187C0.29375 28.5312 0 27.825 0 27V6H3V27H24V30H3ZM9 3V21V3Z" fill="#61896F"/>
</svg>
