<svg width="20" height="20" viewBox="0 0 20 20" fill="none" xmlns="http://www.w3.org/2000/svg">
<path d="M7.26953 12.4688C7.95703 13.1562 8.78516 13.5 9.75391 13.5C10.7227 13.5 11.5508 13.1562 12.2383 12.4688C12.9258 11.7812 13.2695 10.9531 13.2695 9.98438C13.2695 9.01562 12.9258 8.1875 12.2383 7.5C11.5508 6.8125 10.7227 6.46875 9.75391 6.46875C8.78516 6.46875 7.95703 6.8125 7.26953 7.5C6.58203 8.1875 6.23828 9.01562 6.23828 9.98438C6.23828 10.9531 6.58203 11.7812 7.26953 12.4688V12.4688M17.207 10.9688L19.3164 12.6094C19.5352 12.7656 19.5664 12.9844 19.4102 13.2656L17.3945 16.7344C17.2695 16.9531 17.0664 17.0156 16.7852 16.9219L14.3008 15.9375C13.6445 16.4062 13.082 16.7344 12.6133 16.9219L12.2383 19.5469C12.1758 19.8281 12.0195 19.9688 11.7695 19.9688H7.73828C7.48828 19.9688 7.33203 19.8281 7.26953 19.5469L6.89453 16.9219C6.30078 16.6719 5.73828 16.3438 5.20703 15.9375L2.72266 16.9219C2.44141 17.0156 2.23828 16.9531 2.11328 16.7344L0.0976562 13.2656C-0.0585938 12.9844 -0.0273438 12.7656 0.191406 12.6094L2.30078 10.9688C2.26953 10.75 2.25391 10.4219 2.25391 9.98438C2.25391 9.54688 2.26953 9.21875 2.30078 9L0.191406 7.35938C-0.0273438 7.20312 -0.0585938 6.98438 0.0976562 6.70312L2.11328 3.23438C2.23828 3.01562 2.44141 2.95312 2.72266 3.04688L5.20703 4.03125C5.86328 3.5625 6.42578 3.23438 6.89453 3.04688L7.26953 0.421875C7.33203 0.140625 7.48828 0 7.73828 0H11.7695C12.0195 0 12.1758 0.140625 12.2383 0.421875L12.6133 3.04688C13.207 3.29688 13.7695 3.625 14.3008 4.03125L16.7852 3.04688C17.0664 2.95312 17.2695 3.01562 17.3945 3.23438L19.4102 6.70312C19.5664 6.98438 19.5352 7.20312 19.3164 7.35938L17.207 9C17.2383 9.21875 17.2539 9.54688 17.2539 9.98438C17.2539 10.4219 17.2383 10.75 17.207 10.9688V10.9688" fill="#4A4A4A"/>
</svg>
