<svg width="23" height="18" viewBox="0 0 23 18" fill="none" xmlns="http://www.w3.org/2000/svg">
<path d="M20.0156 5.01562C19.5469 5.01562 19.1484 5.14844 18.8203 5.41406C18.4922 5.67969 18.2578 6.00781 18.1172 6.39844C17.9766 6.78906 17.9688 7.15625 18.0938 7.5L14.5312 11.0625C14.1875 10.9688 13.8438 10.9688 13.5 11.0625L10.9688 8.53125C11.0625 8.15625 11.0469 7.77344 10.9219 7.38281C10.7969 6.99219 10.5703 6.66406 10.2422 6.39844C9.91406 6.13281 9.5 6 9 6C8.53125 6 8.13281 6.13281 7.80469 6.39844C7.47656 6.66406 7.25 6.99219 7.125 7.38281C7 7.77344 6.98438 8.15625 7.07812 8.53125L2.53125 13.0781C2.15625 12.9531 1.78125 12.9609 1.40625 13.1016C1.03125 13.2422 0.703125 13.4766 0.421875 13.8047C0.140625 14.1328 0 14.5312 0 15C0 15.5625 0.195312 16.0391 0.585938 16.4297C0.976562 16.8203 1.45312 17.0156 2.01562 17.0156C2.48438 17.0156 2.88281 16.875 3.21094 16.5938C3.53906 16.3125 3.77344 15.9844 3.91406 15.6094C4.05469 15.2344 4.0625 14.8594 3.9375 14.4844L8.48438 9.9375C8.82812 10.0312 9.17188 10.0312 9.51562 9.9375L12.0938 12.4688C11.9688 12.8438 11.9688 13.2266 12.0938 13.6172C12.2188 14.0078 12.4453 14.3359 12.7734 14.6016C13.1016 14.8672 13.5156 15 14.0156 15C14.4844 15 14.8828 14.8672 15.2109 14.6016C15.5391 14.3359 15.7734 14.0078 15.9141 13.6172C16.0547 13.2266 16.0625 12.8438 15.9375 12.4688L19.5 8.95312C19.875 9.04688 20.25 9.03125 20.625 8.90625C21 8.78125 21.3281 8.55469 21.6094 8.22656C21.8906 7.89844 22.0312 7.48438 22.0312 6.98438C22.0312 6.45312 21.8359 5.99219 21.4453 5.60156C21.0547 5.21094 20.5781 5.01562 20.0156 5.01562V5.01562M14.0156 6L14.9531 3.9375L17.0156 3L14.9531 2.0625L14.0156 0L13.0781 2.0625L11.0156 3L13.0781 3.9375L14.0156 6V6M2.53125 8.01562L3 6L5.01562 5.48438L3 5.01562L2.53125 3L2.01562 5.01562L0 5.48438L2.01562 6L2.53125 8.01562V8.01562" fill="#4A4A4A"/>
</svg>
