<svg width="17" height="17" viewBox="0 0 17 17" fill="none" xmlns="http://www.w3.org/2000/svg">
<path d="M2.74219 11.1328C4.57031 10.3984 6.32812 10.0312 8.01562 10.0312C9.70312 10.0312 11.4609 10.3984 13.2891 11.1328C15.1172 11.8672 16.0312 12.8281 16.0312 14.0156V16.0312H0V14.0156C0 12.8281 0.914062 11.8672 2.74219 11.1328V11.1328M10.8281 6.84375C10.0469 7.625 9.10938 8.01562 8.01562 8.01562C6.92188 8.01562 5.98438 7.625 5.20312 6.84375C4.42188 6.0625 4.03125 5.125 4.03125 4.03125C4.03125 2.9375 4.42188 1.99219 5.20312 1.19531C5.98438 0.398438 6.92188 0 8.01562 0C9.10938 0 10.0469 0.398438 10.8281 1.19531C11.6094 1.99219 12 2.9375 12 4.03125C12 5.125 11.6094 6.0625 10.8281 6.84375V6.84375" fill="#4A4A4A"/>
</svg>
