<svg width="18" height="21" viewBox="0 0 18 21" fill="none" xmlns="http://www.w3.org/2000/svg">
<path d="M15.9844 18V7.03125H2.01562V18H15.9844V18M12.9844 0H15V2.01562H15.9844C16.5156 2.01562 16.9844 2.21875 17.3906 2.625C17.7969 3.03125 18 3.5 18 4.03125V18C18 18.5312 17.7969 19 17.3906 19.4062C16.9844 19.8125 16.5156 20.0156 15.9844 20.0156H2.01562C1.45312 20.0156 0.976562 19.8203 0.585938 19.4297C0.195312 19.0391 0 18.5625 0 18V4.03125C0 3.5 0.195312 3.03125 0.585938 2.625C0.976562 2.21875 1.45312 2.01562 2.01562 2.01562H3V0H5.01562V2.01562H12.9844V0V0M14.0156 11.0156V16.0312H9V11.0156H14.0156V11.0156" fill="#4A4A4A"/>
</svg>
