<svg width="20" height="20" viewBox="0 0 20 20" fill="none" xmlns="http://www.w3.org/2000/svg">
<path d="M18.5625 12.8438L19.9688 14.2969L17.8594 16.4062L19.2656 17.8594L17.8594 19.2656L16.4062 17.8594L14.2969 19.9688L12.8438 18.5625L11.4375 19.9688L9.98438 18.5625L13.5469 15L4.96875 6.42188L1.40625 9.98438L0 8.53125L1.40625 7.125L0 5.67188L2.10938 3.5625L0.703125 2.10938L2.10938 0.703125L3.5625 2.10938L5.67188 0L7.125 1.40625L8.53125 0L9.98438 1.40625L6.42188 4.96875L15 13.5469L18.5625 9.98438L19.9688 11.4375L18.5625 12.8438V12.8438" fill="#94A3B8"/>
</svg>
