<svg width="56" height="56" viewBox="0 0 56 56" fill="none" xmlns="http://www.w3.org/2000/svg">
<rect x="1.5" y="-1.5" width="53" height="53" rx="26.5" transform="matrix(-1 0 0 1 56 3)" fill="white"/>
<rect x="1.5" y="-1.5" width="53" height="53" rx="26.5" transform="matrix(-1 0 0 1 56 3)" stroke="#EAECE9" stroke-width="3"/>
<path fill-rule="evenodd" clip-rule="evenodd" d="M14.75 28C14.75 27.4822 15.1697 27.0625 15.6875 27.0625H36.3125C36.8303 27.0625 37.25 27.4822 37.25 28C37.25 28.5178 36.8303 28.9375 36.3125 28.9375H15.6875C15.1697 28.9375 14.75 28.5178 14.75 28Z" fill="black"/>
<path fill-rule="evenodd" clip-rule="evenodd" d="M27.2121 18.8996C27.5782 18.5335 28.1718 18.5335 28.5379 18.8996L36.9754 27.3371C37.3415 27.7032 37.3415 28.2968 36.9754 28.6629L28.5379 37.1004C28.1718 37.4665 27.5782 37.4665 27.2121 37.1004C26.846 36.7343 26.846 36.1407 27.2121 35.7746L34.9867 28L27.2121 20.2254C26.846 19.8593 26.846 19.2657 27.2121 18.8996Z" fill="black"/>
</svg>
