<svg width="56" height="56" viewBox="0 0 56 56" fill="none" xmlns="http://www.w3.org/2000/svg">
<rect x="1.5" y="1.5" width="53" height="53" rx="26.5" fill="white"/>
<rect x="1.5" y="1.5" width="53" height="53" rx="26.5" stroke="#E7E9E6" stroke-width="3"/>
<path fill-rule="evenodd" clip-rule="evenodd" d="M41.25 28C41.25 27.4822 40.8303 27.0625 40.3125 27.0625H19.6875C19.1697 27.0625 18.75 27.4822 18.75 28C18.75 28.5178 19.1697 28.9375 19.6875 28.9375H40.3125C40.8303 28.9375 41.25 28.5178 41.25 28Z" fill="black"/>
<path fill-rule="evenodd" clip-rule="evenodd" d="M28.7879 18.8996C28.4218 18.5335 27.8282 18.5335 27.4621 18.8996L19.0246 27.3371C18.6585 27.7032 18.6585 28.2968 19.0246 28.6629L27.4621 37.1004C27.8282 37.4665 28.4218 37.4665 28.7879 37.1004C29.154 36.7343 29.154 36.1407 28.7879 35.7746L21.0133 28L28.7879 20.2254C29.154 19.8593 29.154 19.2657 28.7879 18.8996Z" fill="black"/>
</svg>
