<svg width="11" height="13" viewBox="0 0 11 13" fill="none" xmlns="http://www.w3.org/2000/svg">
<path d="M3.5 0H7V1.17578H3.5V0ZM9.35156 3.74609L10.1719 2.89844C10.0443 2.7526 9.91211 2.61133 9.77539 2.47461C9.63867 2.33789 9.4974 2.20573 9.35156 2.07812L8.53125 2.92578C8.07552 2.5612 7.56966 2.27409 7.01367 2.06445C6.45768 1.85482 5.86979 1.75 5.25 1.75C4.52083 1.75 3.8418 1.88672 3.21289 2.16016C2.58398 2.43359 2.02799 2.81185 1.54492 3.29492C1.06185 3.77799 0.683594 4.33854 0.410156 4.97656C0.136719 5.61458 0 6.28906 0 7C0 7.72917 0.136719 8.41276 0.410156 9.05078C0.683594 9.6888 1.06185 10.2448 1.54492 10.7188C2.02799 11.1927 2.58398 11.5664 3.21289 11.8398C3.8418 12.1133 4.52083 12.25 5.25 12.25C5.97917 12.25 6.6582 12.1133 7.28711 11.8398C7.91602 11.5664 8.472 11.1927 8.95508 10.7188C9.43815 10.2448 9.81641 9.6888 10.0898 9.05078C10.3633 8.41276 10.5 7.72917 10.5 7C10.5 6.38021 10.3997 5.79232 10.1992 5.23633C9.9987 4.68034 9.71615 4.18359 9.35156 3.74609ZM5.82422 7.60156H4.67578V4.10156H5.82422V7.60156Z" fill="#4A4A4A"/>
</svg>
