<svg width="56" height="56" viewBox="0 0 56 56" fill="none" xmlns="http://www.w3.org/2000/svg">
<rect width="56" height="56" rx="28" fill="#A49A87" fill-opacity="0.2"/>
<path d="M32.125 33.875L33.875 32.125L29.25 27.5V21.75H26.75V28.5L32.125 33.875ZM28 40.5C26.2708 40.5 24.6458 40.1719 23.125 39.5156C21.6042 38.8594 20.2812 37.9688 19.1562 36.8438C18.0312 35.7188 17.1406 34.3958 16.4844 32.875C15.8281 31.3542 15.5 29.7292 15.5 28C15.5 26.2708 15.8281 24.6458 16.4844 23.125C17.1406 21.6042 18.0312 20.2812 19.1562 19.1562C20.2812 18.0312 21.6042 17.1406 23.125 16.4844C24.6458 15.8281 26.2708 15.5 28 15.5C29.7292 15.5 31.3542 15.8281 32.875 16.4844C34.3958 17.1406 35.7188 18.0312 36.8438 19.1562C37.9688 20.2812 38.8594 21.6042 39.5156 23.125C40.1719 24.6458 40.5 26.2708 40.5 28C40.5 29.7292 40.1719 31.3542 39.5156 32.875C38.8594 34.3958 37.9688 35.7188 36.8438 36.8438C35.7188 37.9688 34.3958 38.8594 32.875 39.5156C31.3542 40.1719 29.7292 40.5 28 40.5ZM28 38C30.7708 38 33.1302 37.026 35.0781 35.0781C37.026 33.1302 38 30.7708 38 28C38 25.2292 37.026 22.8698 35.0781 20.9219C33.1302 18.974 30.7708 18 28 18C25.2292 18 22.8698 18.974 20.9219 20.9219C18.974 22.8698 18 25.2292 18 28C18 30.7708 18.974 33.1302 20.9219 35.0781C22.8698 37.026 25.2292 38 28 38Z" fill="#4A4A4A"/>
</svg>
