<svg width="56" height="56" viewBox="0 0 56 56" fill="none" xmlns="http://www.w3.org/2000/svg">
<rect width="56" height="56" rx="28" fill="#A49A87" fill-opacity="0.2"/>
<path d="M20.5 29.875C20.5 30.9583 20.7188 31.9844 21.1562 32.9531C21.5938 33.9219 22.2188 34.7708 23.0312 35.5C23.0104 35.3958 23 35.3021 23 35.2188C23 35.1354 23 35.0417 23 34.9375C23 34.2708 23.125 33.6458 23.375 33.0625C23.625 32.4792 23.9896 31.9479 24.4688 31.4688L28 28L31.5312 31.4688C32.0104 31.9479 32.375 32.4792 32.625 33.0625C32.875 33.6458 33 34.2708 33 34.9375C33 35.0417 33 35.1354 33 35.2188C33 35.3021 32.9896 35.3958 32.9688 35.5C33.7812 34.7708 34.4062 33.9219 34.8438 32.9531C35.2812 31.9844 35.5 30.9583 35.5 29.875C35.5 28.8333 35.3073 27.849 34.9219 26.9219C34.5365 25.9948 33.9792 25.1667 33.25 24.4375C32.8333 24.7083 32.3958 24.9115 31.9375 25.0469C31.4792 25.1823 31.0104 25.25 30.5312 25.25C29.2396 25.25 28.1198 24.8229 27.1719 23.9688C26.224 23.1146 25.6771 22.0625 25.5312 20.8125C24.7188 21.5 24 22.2135 23.375 22.9531C22.75 23.6927 22.224 24.4427 21.7969 25.2031C21.3698 25.9635 21.0469 26.7396 20.8281 27.5312C20.6094 28.3229 20.5 29.1042 20.5 29.875ZM28 31.5L26.2188 33.25C25.9896 33.4792 25.8125 33.7396 25.6875 34.0312C25.5625 34.3229 25.5 34.625 25.5 34.9375C25.5 35.6042 25.7448 36.1771 26.2344 36.6562C26.724 37.1354 27.3125 37.375 28 37.375C28.6875 37.375 29.276 37.1354 29.7656 36.6562C30.2552 36.1771 30.5 35.6042 30.5 34.9375C30.5 34.6042 30.4375 34.2969 30.3125 34.0156C30.1875 33.7344 30.0104 33.4792 29.7812 33.25L28 31.5ZM28 16.125V20.25C28 20.9583 28.2448 21.5521 28.7344 22.0312C29.224 22.5104 29.8229 22.75 30.5312 22.75C30.9062 22.75 31.2552 22.6719 31.5781 22.5156C31.901 22.3594 32.1875 22.125 32.4375 21.8125L33 21.125C34.5417 22 35.7604 23.2188 36.6562 24.7812C37.5521 26.3438 38 28.0417 38 29.875C38 32.6667 37.0312 35.0312 35.0938 36.9688C33.1562 38.9062 30.7917 39.875 28 39.875C25.2083 39.875 22.8438 38.9062 20.9062 36.9688C18.9688 35.0312 18 32.6667 18 29.875C18 27.1875 18.901 24.6354 20.7031 22.2188C22.5052 19.8021 24.9375 17.7708 28 16.125Z" fill="#4A4A4A"/>
</svg>
