<svg width="207" height="40" viewBox="0 0 207 40" fill="none" xmlns="http://www.w3.org/2000/svg">
<rect x="8" width="40" height="40" rx="20" fill="#4A4A4A"/>
<path d="M27.0239 29H25.9927L27.0239 22.0156H23.5083C23.0083 22.0156 22.8833 21.7969 23.1333 21.3594C23.2271 21.2031 23.2427 21.1562 23.1802 21.2188C24.7739 18.4375 26.7114 15.0312 28.9927 11H30.0239L28.9927 17.9844H32.5083C32.9458 17.9844 33.0864 18.2031 32.9302 18.6406L27.0239 29Z" fill="white"/>
<path d="M60.4762 27L65.4535 12.4492H69.3528L74.4565 27H71.1428L68.811 19.981C68.5272 19.0744 68.2416 18.0818 67.954 17.003C67.6665 15.9242 67.363 14.7487 67.0436 13.4766H67.6905C67.3811 14.7547 67.0917 15.9362 66.8222 17.0209C66.5528 18.1057 66.2842 19.0924 66.0164 19.981L63.7673 27H60.4762ZM63.586 23.6231V21.2848H71.3467V23.6231H63.586ZM73.3898 14.9231V12.4492H85.2719V14.9231H80.8274V27H77.8433V14.9231H73.3898ZM86.8187 27V12.4492H89.8028V18.3269H96.1421V12.4492H99.1262V27H96.1421V20.8008H89.8028V27H86.8187ZM101.26 27V12.4492H104.244V24.5261H110.518V27H101.26ZM112.069 27V12.4492H121.811V14.9231H115.053V18.4351H121.296V20.8668H115.053V24.5261H121.831V27H112.069ZM123.138 14.9231V12.4492H135.02V14.9231H130.575V27H127.591V14.9231H123.138ZM136.567 27V12.4492H146.309V14.9231H139.551V18.4351H145.794V20.8668H139.551V24.5261H146.329V27H136.567ZM150.24 27.185C149.763 27.185 149.362 27.0239 149.036 26.7017C148.71 26.3795 148.547 25.9816 148.547 25.508C148.547 25.0344 148.71 24.6365 149.036 24.3143C149.362 23.9921 149.763 23.831 150.24 23.831C150.717 23.831 151.119 23.9921 151.444 24.3143C151.77 24.6365 151.933 25.0344 151.933 25.508C151.933 25.9816 151.77 26.3795 151.444 26.7017C151.119 27.0239 150.717 27.185 150.24 27.185ZM154.395 27V12.4492H160.072C161.176 12.4492 162.116 12.6594 162.89 13.0799C163.665 13.5003 164.256 14.08 164.664 14.8188C165.071 15.5576 165.275 16.4056 165.275 17.3629C165.275 18.3237 165.069 19.1706 164.656 19.9036C164.243 20.6367 163.644 21.2106 162.858 21.6255C162.073 22.0404 161.121 22.2479 160.002 22.2479H156.355V19.8418H159.529C160.136 19.8418 160.636 19.7363 161.031 19.5254C161.426 19.3144 161.72 19.0226 161.912 18.6497C162.104 18.2769 162.201 17.8479 162.201 17.3629C162.201 16.8709 162.104 16.4408 161.912 16.0727C161.72 15.7046 161.426 15.4185 161.029 15.2143C160.633 15.0101 160.13 14.9081 159.52 14.9081H157.379V27H154.395ZM166.854 27V12.4492H172.53C173.635 12.4492 174.575 12.6447 175.349 13.0355C176.124 13.4264 176.715 13.9771 177.123 14.6876C177.53 15.3981 177.734 16.2302 177.734 17.184C177.734 18.1448 177.528 18.9713 177.115 19.6635C176.702 20.3557 176.103 20.8863 175.317 21.2554C174.532 21.6245 173.58 21.809 172.461 21.809H168.617V19.3939H171.988C172.595 19.3939 173.095 19.3106 173.488 19.144C173.882 18.9774 174.175 18.7305 174.369 18.4032C174.563 18.0759 174.66 17.6695 174.66 17.184C174.66 16.6925 174.563 16.2783 174.369 15.9415C174.175 15.6048 173.881 15.3483 173.486 15.1722C173.091 14.9961 172.589 14.9081 171.979 14.9081H169.838V27H166.854ZM174.95 27L171.413 20.3787H174.642L178.258 27H174.95ZM185.883 27.1953C184.597 27.1953 183.441 26.9021 182.415 26.3157C181.389 25.7293 180.579 24.8796 179.984 23.7666C179.389 22.6536 179.091 21.3095 179.091 19.7344C179.091 18.1492 179.389 16.7992 179.984 15.6845C180.579 14.5697 181.389 13.7192 182.415 13.1331C183.441 12.547 184.597 12.2539 185.883 12.2539C187.168 12.2539 188.323 12.547 189.346 13.1331C190.368 13.7192 191.177 14.5697 191.773 15.6845C192.368 16.7992 192.666 18.1492 192.666 19.7344C192.666 21.313 192.368 22.6589 191.773 23.7719C191.177 24.8849 190.368 25.7337 189.346 26.3184C188.323 26.903 187.168 27.1953 185.883 27.1953ZM185.883 24.5484C186.636 24.5484 187.294 24.3638 187.857 23.9947C188.42 23.6255 188.858 23.0823 189.171 22.3651C189.484 21.6479 189.641 20.7709 189.641 19.7344C189.641 18.6883 189.484 17.8058 189.171 17.0868C188.858 16.3678 188.42 15.8237 187.857 15.4546C187.294 15.0854 186.636 14.9008 185.883 14.9008C185.13 14.9008 184.471 15.0862 183.907 15.4568C183.343 15.8274 182.903 16.3722 182.588 17.0912C182.273 17.8102 182.116 18.6913 182.116 19.7344C182.116 20.7709 182.273 21.6471 182.588 22.3629C182.903 23.0786 183.343 23.6218 183.907 23.9924C184.471 24.3631 185.13 24.5484 185.883 24.5484Z" fill="#0F172A"/>
</svg>
