<svg width="20" height="20" viewBox="0 0 20 20" fill="none" xmlns="http://www.w3.org/2000/svg">
<path d="M4.33594 15.6328C5.91406 17.2109 7.79688 18 9.98438 18C12.1719 18 14.0547 17.2109 15.6328 15.6328C17.2109 14.0547 18 12.1719 18 9.98438C18 7.79688 17.2109 5.91406 15.6328 4.33594C14.0547 2.75781 12.1719 1.96875 9.98438 1.96875C7.79688 1.96875 5.91406 2.75781 4.33594 4.33594C2.75781 5.91406 1.96875 7.79688 1.96875 9.98438C1.96875 12.1719 2.75781 14.0547 4.33594 15.6328ZM2.92969 2.92969C4.88281 0.976562 7.23438 0 9.98438 0C12.7344 0 15.0859 0.976562 17.0391 2.92969C18.9922 4.88281 19.9688 7.23438 19.9688 9.98438C19.9688 12.7344 18.9922 15.0859 17.0391 17.0391C15.0859 18.9922 12.7344 19.9688 9.98438 19.9688C7.23438 19.9688 4.88281 18.9922 2.92969 17.0391C0.976562 15.0859 0 12.7344 0 9.98438C0 7.23438 0.976562 4.88281 2.92969 2.92969ZM7.96875 14.4844V5.48438L13.9688 9.98438L7.96875 14.4844Z" fill="#5C5F5B"/>
</svg>
