<svg width="17" height="14" viewBox="0 0 17 14" fill="none" xmlns="http://www.w3.org/2000/svg">
<path d="M1.66667 13.3333C1.20833 13.3333 0.815972 13.1701 0.489583 12.8438C0.163194 12.5174 0 12.125 0 11.6667V1.66667C0 1.20833 0.163194 0.815972 0.489583 0.489583C0.815972 0.163194 1.20833 0 1.66667 0H11.6667C12.125 0 12.5174 0.163194 12.8438 0.489583C13.1701 0.815972 13.3333 1.20833 13.3333 1.66667V5.41667L16.6667 2.08333V11.25L13.3333 7.91667V11.6667C13.3333 12.125 13.1701 12.5174 12.8438 12.8438C12.5174 13.1701 12.125 13.3333 11.6667 13.3333H1.66667ZM1.66667 11.6667H11.6667V1.66667H1.66667V11.6667ZM1.66667 11.6667V1.66667V11.6667Z" fill="#64748B"/>
</svg>
